<svg
	height="350.4601557228167"
	width="191.90243302887936"
>
	<defs id="SvgjsDefs1001">
		<linearGradient id="SvgjsLinearGradient1013">
			<stop id="SvgjsStop1014" stop-color="#8f5e25" offset="0"></stop>
			<stop id="SvgjsStop1015" stop-color="#fbf4a1" offset="0.5"></stop>
			<stop id="SvgjsStop1016" stop-color="#8f5e25" offset="1"></stop>
		</linearGradient>
		<linearGradient id="SvgjsLinearGradient1017">
			<stop id="SvgjsStop1018" stop-color="#8f5e25" offset="0"></stop>
			<stop id="SvgjsStop1019" stop-color="#fbf4a1" offset="0.5"></stop>
			<stop id="SvgjsStop1020" stop-color="#8f5e25" offset="1"></stop>
		</linearGradient>
		<linearGradient id="SvgjsLinearGradient1021">
			<stop id="SvgjsStop1022" stop-color="#8f5e25" offset="0"></stop>
			<stop id="SvgjsStop1023" stop-color="#fbf4a1" offset="0.5"></stop>
			<stop id="SvgjsStop1024" stop-color="#8f5e25" offset="1"></stop>
		</linearGradient>
	</defs>
	<g
		id="SvgjsG1007"
		featurekey="symbolFeature-0"
		transform="matrix(2.936960508136605,0,0,2.936960508136605,-50.48705219527852,-24.041501057316047)"
		fill="url(#SvgjsLinearGradient1013)"
	>
		<g xmlns="http://www.w3.org/2000/svg" transform="translate(0,-952.36218)">
			<path
				style="
					font-size: medium;
					font-style: normal;
					font-variant: normal;
					font-weight: normal;
					font-stretch: normal;
					text-indent: 0;
					text-align: start;
					text-decoration: none;
					line-height: normal;
					letter-spacing: normal;
					word-spacing: normal;
					text-transform: none;
					direction: ltr;
					block-progression: tb;
					writing-mode: lr-tb;
					text-anchor: start;
					baseline-shift: baseline;
					opacity: 1;
					color: ;
					fill: url(#SvgjsLinearGradient1013);
					fill-opacity: 1;
					stroke: none;
					stroke-width: 2;
					marker: none;
					visibility: visible;
					display: inline;
					overflow: visible;
					enable-background: accumulate;
					font-family: Sans;
					-inkscape-font-specification: Sans;
				"
				d="M 44.8125 15 A 1.0001 1.0001 0 0 0 44 16 L 44 29.9375 C 42.296141 30.466952 40.686775 31.186986 39.1875 32.09375 L 35.875 28.78125 A 1.0001 1.0001 0 0 0 34.9375 28.5 A 1.0001 1.0001 0 0 0 34.4375 28.78125 L 28.78125 34.4375 A 1.0001 1.0001 0 0 0 28.78125 35.84375 L 32.0625 39.125 C 30.968944 40.92777 30.168872 42.89714 29.65625 45 L 25 45 A 1.0001 1.0001 0 0 0 24 46 L 24 54 A 1.0001 1.0001 0 0 0 25 55 L 29.6875 55 C 30.200781 57.0887 30.975548 59.05185 32.0625 60.84375 L 28.78125 64.125 A 1.0001 1.0001 0 0 0 28.78125 65.53125 L 34.4375 71.1875 A 1.0001 1.0001 0 0 0 35.875 71.1875 L 39.1875 67.875 C 40.68455 68.7808 42.257371 69.6134 43.96875 70.125 A 1.0087508 1.0087508 0 0 0 44 70.125 L 44 77 A 1.0001 1.0001 0 0 0 44.1875 77.5625 L 49.1875 84.5625 A 1.0001 1.0001 0 0 0 50.8125 84.5625 L 55.8125 77.5625 A 1.0001 1.0001 0 0 0 56 77 L 56 61.53125 C 60.168086 59.36505 63 55.0125 63 50 C 63 42.83212 57.167856 37 50 37 C 42.832144 37 37 42.83212 37 50 C 37 51.9348 37.426831 53.75345 38.1875 55.40625 A 1.0001 1.0001 0 1 0 40 54.59375 C 39.356889 53.19635 39 51.643 39 50 C 39 46.129638 40.988583 42.741161 44 40.78125 L 44 68 C 42.407109 67.470774 40.90851 66.756156 39.53125 65.84375 A 1.0001 1.0001 0 0 0 38.25 65.96875 L 35.15625 69.0625 L 30.9375 64.8125 L 34.03125 61.71875 A 1.0001 1.0001 0 0 0 34.15625 60.46875 C 32.836003 58.47585 31.86791 56.20875 31.375 53.78125 A 1.0001 1.0001 0 0 0 30.40625 53 L 26 53 L 26 47 L 30.40625 47 A 1.0001 1.0001 0 0 0 31.375 46.1875 C 31.86791 43.76002 32.836 41.4929 34.15625 39.5 A 1.0001 1.0001 0 0 0 34.03125 38.25 L 30.9375 35.125 L 35.15625 30.90625 L 38.25 34 A 1.0001 1.0001 0 0 0 39.53125 34.125 C 42.535229 32.13493 46.121992 31 50 31 C 53.878008 31 57.464771 32.13493 60.46875 34.125 A 1.0001 1.0001 0 0 0 61.75 34 L 64.84375 30.90625 L 69.0625 35.125 L 65.96875 38.25 A 1.0001 1.0001 0 0 0 65.84375 39.5 C 67.164 41.4929 68.13209 43.76002 68.625 46.1875 A 1.0001 1.0001 0 0 0 69.59375 47 L 74 47 L 74 53 L 69.59375 53 A 1.0001 1.0001 0 0 0 68.625 53.78125 C 68.13209 56.20875 67.163997 58.47585 65.84375 60.46875 A 1.0001 1.0001 0 0 0 65.96875 61.71875 L 69.0625 64.8125 L 64.84375 69.0625 L 61.75 65.96875 A 1.0054607 1.0054607 0 0 0 60.3125 67.375 L 64.125 71.1875 A 1.0001 1.0001 0 0 0 65.5625 71.1875 L 71.21875 65.53125 A 1.0001 1.0001 0 0 0 71.21875 64.125 L 67.9375 60.84375 C 69.024452 59.05185 69.799219 57.0887 70.3125 55 L 75 55 A 1.0001 1.0001 0 0 0 76 54 L 76 46 A 1.0001 1.0001 0 0 0 75 45 L 70.34375 45 C 69.831128 42.89714 69.031056 40.92777 67.9375 39.125 L 71.21875 35.84375 A 1.0001 1.0001 0 0 0 71.21875 34.4375 L 65.5625 28.78125 A 1.0001 1.0001 0 0 0 64.125 28.78125 L 60.8125 32.09375 C 59.313225 31.186986 57.703859 30.466952 56 29.9375 L 56 16 A 1.0001 1.0001 0 0 0 55 15 L 45 15 A 1.0001 1.0001 0 0 0 44.8125 15 z M 46 17 L 54 17 L 54 22 L 46 22 L 46 17 z M 46 24 L 54 24 L 54 29.4375 C 52.708724 29.174931 51.369697 29 50 29 C 48.630303 29 47.291276 29.174931 46 29.4375 L 46 24 z M 50 39 C 51.416212 39 52.757976 39.296441 54 39.78125 L 54 75 L 46 75 L 46 39.78125 C 47.242024 39.296441 48.583788 39 50 39 z M 56 40.78125 C 59.011417 42.741161 61 46.129638 61 50 C 61 53.864884 59.004591 57.227857 56 59.1875 L 56 40.78125 z M 46.25 77 L 53.75 77 L 50 82.28125 L 46.25 77 z "
				transform="translate(0,952.36218)"
			></path>
		</g>
	</g>
	<g
		id="SvgjsG1008"
		featurekey="nameFeature-0"
		transform="matrix(1.2123795117721567,0,0,1.2123795117721567,0.369562387948982,234.55513907382073)"
		fill="url(#SvgjsLinearGradient1017)"
	>
		<path
			d="M0.56 39.36 c0 -0.52 0.2 -0.28 0.44 -0.44 c0.28 0 0.76 0.04 1.28 0.04 c1.04 0 2.28 -0.12 2.4 -0.88 c0 -0.76 -0.12 -0.68 -0.12 -1.68 c0 -0.36 0.04 -3.4 0.04 -3.8 c0 -0.52 -0.04 -1.44 -0.04 -2.44 l0 -12.96 c0 -0.04 0.04 -0.4 0.04 -0.44 s-0.04 -0.12 -0.04 -0.56 l0 -4.16 c-0.08 -0.24 -0.08 -0.84 -0.32 -0.84 c-1.08 0 -2.8 0.12 -2.96 0.12 c-0.32 0 -0.76 -0.08 -0.76 -0.56 c0 -0.92 0.44 -0.88 0.56 -1 l2.32 0.04 s0.72 0.04 0.96 0.04 c0.12 0 0.36 -0.04 0.8 -0.04 l3.72 0 c0.08 0 0.28 -0.08 0.36 -0.08 s0.28 0.08 0.48 0.08 l6.28 -0.04 c0.36 0.04 1.32 0.32 2.4 0.32 c-0.04 0 -0.04 -0.04 -0.04 -0.04 c0.08 0 0.76 0.44 1.48 0.44 c0.12 0 1.56 0.04 1.56 0.6 c0 -0.04 0 -0.08 0.12 -0.08 c0.2 0 0.8 0.2 2.36 1.2 l0 0.08 c0.08 0.32 1.28 0.76 1.76 1.44 c0.04 0.48 1.4 1.44 1.4 1.76 c-0.04 0.04 -0.04 0.04 -0.04 0.08 l0 -0.04 c0.12 0 1 1.56 1.52 3.12 c-0.04 0 -0.04 0.04 -0.04 0.04 c0 0.24 0.92 1.48 0.92 3.36 c0.12 0.64 0.24 3.36 0.24 3.8 c0 0.28 -0.16 0.96 -0.16 1.48 c0 0 -0.32 1.52 -0.32 1.68 l-0.04 -0.04 c-0.12 0 0 1.48 -0.48 1.96 c-0.2 0 0.16 0.88 -0.64 1.68 c-0.12 0.08 -0.32 0.32 -0.32 0.84 c-1.44 2.48 -1.44 1.52 -1.96 2.6 c0 0.28 -0.32 0.24 -0.56 0.4 c-0.64 1.08 -1.76 1.52 -3.52 2.4 c-0.6 0 -1.68 0.76 -2.68 0.84 c0 0.04 -4.44 0.32 -6.48 0.32 c-0.48 0 -1 -0.04 -1.48 -0.04 c-0.24 0 -5.16 0.04 -7 0.08 c-0.16 0 -0.6 -0.04 -1.24 -0.04 c-0.68 0 -0.76 0.2 -1.52 0.2 c-0.36 -0.04 -0.68 -0.24 -0.68 -0.84 z M1 39.8 c0.2 0.08 0.32 0.08 0.4 0.08 c0.24 0 0.2 0 0.24 -0.08 l-0.64 0 z M2.76 39.88 c0 -0.04 -0.04 -0.04 -0.04 -0.04 c-0.04 0 -0.04 0 -0.04 0.04 s0 0.08 0.04 0.08 c0 0 0.04 -0.04 0.04 -0.08 z M3.28 39.8 c-0.04 0 -0.08 0.04 -0.08 0.08 s0.04 0.08 0.08 0.08 s0.04 -0.04 0.04 -0.08 s0 -0.08 -0.04 -0.08 z M13.72 39.72 c-0.04 0 -0.08 0.04 -0.08 0.08 s0.04 0.08 0.08 0.08 s0.04 -0.04 0.04 -0.08 s0 -0.08 -0.04 -0.08 z M14.36 39.8 c0 -0.04 -0.04 -0.04 -0.04 -0.04 c-0.04 0 -0.04 0 -0.04 0.04 s0 0.08 0.04 0.08 c0 0 0.04 -0.04 0.04 -0.08 z M1.72 39.24 c-0.12 0.04 -0.12 0.16 -0.12 0.24 c0.08 -0.04 0.12 -0.16 0.12 -0.24 z M0.96 39.16 c0 0.12 0.04 0.12 0.2 0.2 l-0.04 0.04 c0.08 0 0.32 -0.16 0.28 -0.28 c-0.12 0 -0.44 0 -0.44 0.04 l0 0 z M1.6 39.16 c-0.04 0 -0.04 0.04 -0.04 0.08 s0 0.04 0.04 0.04 l0 -0.12 z M10.48 37.28 c0.12 0.92 0.08 1.56 0.52 1.56 l2.72 0 c0.08 0 0.16 -0.04 0.24 -0.04 c0 0 0.28 0.04 0.52 0.04 c0.6 0 1.48 -0.04 1.8 -0.2 c-0.32 -0.24 0.36 0.32 1.2 -0.32 c1.88 -0.12 1.16 -0.4 1.88 -0.76 c0.12 0 0.96 -0.48 1.12 -0.84 c0 -0.32 0.64 -0.48 0.68 -0.64 c-0.04 -0.04 -0.08 -0.08 -0.08 -0.12 c0 -0.24 0.68 -0.4 0.68 -1.04 c-0.04 -0.04 -0.04 -0.04 -0.04 -0.08 c0 -0.16 0.4 -0.28 0.4 -1 l0 0.04 c0.12 0 0.92 -3.28 0.92 -4.96 c0 -0.04 -0.04 -0.64 -0.04 -1.28 s0.04 -1.28 0.2 -1.4 c0 -0.08 -0.08 -0.48 -0.08 -0.56 c0 0 0.08 -0.8 0.08 -0.88 c0 -10.8 -2.76 -11.48 -3.84 -12.6 c-0.8 0 -0.96 -0.72 -2.12 -0.72 c-2.16 -0.12 -3.2 -0.28 -6.28 -0.28 c-0.6 1.52 -0.08 3.08 -0.52 3.92 c0 0.08 0.12 0.28 0.12 1.24 c0 0.48 0 0.44 -0.08 0.6 l0 2.12 c0 0.04 0.08 0.32 0.08 0.4 c-0.04 0.04 -0.08 0.16 -0.08 0.16 c0 0.08 0.08 0.56 0.08 0.88 l-0.08 0.08 c0 0.04 0.08 0.4 0.08 0.52 l0 4.64 c0 0.08 0.04 0.4 0.04 0.48 c0 0.64 -0.12 2.48 -0.12 3.84 c0 0.32 0.08 0.6 0.08 0.72 c0 0.4 -0.08 0.88 -0.08 1.28 c0 0.52 0.04 1.56 0.12 1.56 c0 0.04 -0.04 0.68 -0.04 0.76 c0 0.04 -0.04 0.04 -0.04 0.08 s0.08 0.16 0.08 0.4 c0 0.08 0 0.48 -0.12 2.4 z M4.92 37.12 c-0.04 0 -0.04 0 -0.04 0.04 s0 0.08 0.04 0.08 s0.04 -0.04 0.04 -0.08 s0 -0.04 -0.04 -0.04 z M23.84 30.880000000000003 l0 0.04 l0.04 0 z M9.16 19.4 l-0.08 0.08 l0.08 0 l0 -0.08 z M4.92 16.12 c-0.08 0.16 -0.04 0.48 -0.04 0.64 z M5.08 15.920000000000002 c-0.04 0 -0.08 0.04 -0.08 0.08 c0 0 0.04 0.04 0.08 0.04 s0.04 -0.04 0.04 -0.04 c0 -0.04 0 -0.08 -0.04 -0.08 z M23.28 13.52 l-0.04 -0.04 c-0.04 0 -0.04 0.04 -0.04 0.04 c0 0.04 0 0.08 0.04 0.08 c0 0 0.04 -0.04 0.04 -0.08 z M23.56 13.52 c0 0 -0.04 -0.04 -0.08 -0.04 l-0.04 0.04 c0 0.04 0.04 0.08 0.04 0.08 c0.04 0 0.08 -0.04 0.08 -0.08 z M17.4 10.559999999999999 c0 0.16 0.08 0.2 0.12 0.2 s0.04 -0.04 0.04 -0.04 c0 -0.12 -0.16 -0.24 -0.32 -0.24 c-0.08 0.04 -0.32 -0.04 -0.4 0.08 l0.56 0 z M2.96 10.48 c-0.04 0 -0.08 0.04 -0.08 0.08 s0.04 0.08 0.08 0.08 s0.04 -0.04 0.04 -0.08 s0 -0.08 -0.04 -0.08 z M11.28 10.48 c-0.12 0 -0.12 0.04 -0.16 0.08 l0.16 -0.08 l0 0 z M15.64 10.48 l-0.44 0 l0 0.08 c0.2 0 0.56 0.04 0.64 -0.08 l-0.2 0 z M16.16 10.48 c0 -0.04 -0.04 -0.04 -0.04 -0.04 c-0.04 0 -0.04 0 -0.04 0.04 l0.08 0 z M36.084 39.44 l0 -0.2 l0.48 -0.48 l1.96 0 l0.16 0.08 l0.92 0.08 c0.16 0.08 0.36 -0.52 0.48 -0.52 l0 -4.84 c0 -0.04 -0.08 -0.52 -0.08 -0.56 c0 0 0.08 -0.96 0.08 -1.16 c0.08 -0.12 -0.12 0.16 -0.12 -0.64 c0 -0.08 0.12 -0.16 0.12 -0.32 c0 -0.28 -0.08 -0.44 -0.08 -0.64 c0 -0.08 0.08 -0.36 0.08 -0.52 l0 -2.52 c0 -0.36 -0.12 -1 -0.12 -1.48 l0.04 -3.44 c-0.04 -0.16 -0.04 -1.2 -0.04 -1.4 c0 -0.12 0.04 -1.04 0.04 -1.16 c0 -0.04 -0.04 -2.08 -0.04 -2.32 c0 -2.48 0.04 -2.92 0.04 -4 c0 -0.48 0 -1.52 -0.04 -1.84 l-0.24 -0.28 s-0.8 -0.04 -1.12 -0.04 c-0.52 0 -0.92 0.12 -1.4 0.12 c-0.44 -0.08 -0.88 0.24 -1.28 -0.68 c0 -0.36 0.08 -0.8 0.44 -0.88 c8.16 0 9 0.08 12.24 0.08 c7.76 0 7.32 -0.08 10.56 -0.08 c0.4 0 0.84 7.32 0.84 7.68 c0 0.04 0.04 0.04 0.04 0.08 c0 0.48 -0.72 0.84 -0.96 0.84 c-0.52 0 -0.8 -0.56 -0.96 -1.2 c0.16 0 -1.72 -3.08 -1.64 -2.92 c-0.52 -0.52 -0.56 -0.6 -0.88 -1 c0 -0.36 -1.72 -1.16 -1.92 -1.44 c0 0.04 -0.04 0.04 -0.04 0.04 c-0.12 0 -0.24 -0.48 -1.08 -0.48 c-1.12 0 -1.04 -0.16 -2.76 -0.16 l0 -0.08 l-1.24 0 l-0.08 0.08 l-0.52 0 l0.28 -0.08 c-0.92 0 -1.32 -0.12 -1.56 -0.12 c-0.36 0 -0.8 0.2 -0.8 1.36 c0 2.24 0.08 3.44 0.08 4 c0 0.6 -0.08 2.36 -0.08 2.6 c0 0.68 0.16 1.24 0.16 1.72 c-0.08 0 -0.16 0.28 -0.16 0.4 s0.16 0.88 0.16 1.24 c0 0.08 -0.08 0.2 -0.08 0.24 c0 0.12 -0.12 1.64 0.28 1.64 c0.92 0 1.6 -0.24 2.32 -0.24 l0 0.04 c0.12 0 0.48 -0.6 0.76 -0.6 c0.48 0 0.56 -0.16 1.08 -0.68 l0 0.04 c-0.04 0 0.68 -1.44 1.08 -1.92 c0.68 -0.32 -0.24 -2 1.76 -2 l0.12 0.08 c0 0.36 0.2 0.48 0.2 1.6 c-0.04 0.32 -0.08 1.36 -0.08 1.28 c0 0.44 0.08 1.12 0.08 1.68 c0 0.48 0 0.48 -0.08 0.72 c0 0.4 0.08 0.92 0.08 1.04 c0 0.52 -0.08 0.52 -0.08 0.92 c0 0.32 0.08 2.48 0.08 2.76 c0 0.16 -0.08 0.32 -0.08 0.56 l0 1.48 c0.04 0.04 -0.32 0.32 -0.52 0.32 c-1.28 0 -0.2 -0.24 -1.64 -2.84 c-1.12 -1.96 -1.48 -1.88 -2.12 -2.44 c0.04 0 -1.16 -0.4 -1.44 -0.4 l-0.12 -0.2 l-1.28 -0.04 c-0.6 0.32 -0.52 2 -0.52 1.36 c0 0.16 0.12 0.56 0.12 1.16 c0 0.28 -0.04 0.76 -0.12 1.2 c0 0.04 0.12 0.4 0.12 0.64 c0 0.4 -0.08 0.36 -0.08 0.52 c0 0.28 0.08 0.44 0.08 0.56 c-0.12 1.56 -0.16 4.36 -0.16 4.84 c0 2.52 -0.04 2.72 0.56 3.32 l1.72 0 c0.16 -0.04 0.36 -0.16 0.52 -0.16 c0.04 0 2.4 0.08 2.72 0.08 s0.04 -0.2 0.88 -0.2 c1.52 -0.6 1.44 -0.08 2.72 -1.08 c-0.04 0 -0.04 -0.04 -0.04 -0.04 c0 -0.12 1 -0.56 1.52 -1.2 c-0.04 0 -0.04 -0.04 -0.04 -0.04 c0 -0.6 1.76 -1.04 1.76 -2.48 c0 -0.16 0.72 -1.08 0.72 -1.32 c1 -2.52 0.36 -2.4 1.64 -2.4 c0.04 0 0.48 0 0.48 0.52 c0 2.6 -0.4 5.8 -0.4 7.6 c0 0.28 0.04 0.56 0.04 0.84 c0 0.48 -0.16 0.88 -1.12 0.88 l-15.4 0 c-2.32 0 -3.16 0.08 -7.44 0.08 c-0.76 -0.24 -0.56 -0.56 -0.56 -0.64 z M36.484 39.6 l0 -0.04 l0 0.12 c0 0.12 0.04 0.28 0.4 0.28 c0.08 0 0.2 0 0.32 -0.04 l0 -0.08 l-0.32 -0.36 c-0.04 0.08 -0.08 0.16 -0.16 0.2 c-0.04 0 -0.16 -0.04 -0.24 -0.12 l0 0.04 z M50.684000000000005 39.76 l0.04 0.08 c0.04 -0.04 0.04 -0.04 0.04 -0.16 z M49.124 39.68 c-0.12 0 -0.16 0 -0.2 0.08 l0.2 0 l0 -0.08 z M37.884 39.24 c0.08 0 0.24 0.08 0.28 0.08 c0.36 0 0.24 0 0.36 -0.08 c-0.08 0 -0.36 -0.08 -0.4 -0.08 c-0.16 0 -0.16 0 -0.24 0.08 z M59.844 39.24 c0.04 0.12 0.16 0.08 0.24 0.08 c-0.04 -0.08 -0.12 -0.08 -0.24 -0.08 z M40.964 39.24 c0 -0.04 -0.04 -0.04 -0.08 -0.04 s-0.08 0 -0.08 0.04 s0.04 0.08 0.08 0.08 s0.08 -0.04 0.08 -0.08 z M36.724000000000004 39.12 l0 0.04 l0.4 0 c-0.08 -0.04 -0.32 -0.04 -0.4 -0.04 z M40.404 33.8 l-0.04 -0.04 c-0.04 0 -0.04 0.04 -0.04 0.04 c0 0.04 0 0.08 0.04 0.08 c0 0 0.04 -0.04 0.04 -0.08 z M40.324000000000005 32.08 l0 0.16 c0.04 0 0.04 -0.04 0.04 -0.08 s0 -0.08 -0.04 -0.08 z M40.404 31.84 c0.04 0.08 0.12 0.08 0.24 0.08 c0 -0.08 0.04 -0.32 -0.08 -0.4 c0 0.08 -0.16 0.2 -0.16 0.32 z M40.644000000000005 31.08 c0 0.04 0 0.08 0.04 0.12 l0.04 -0.12 l-0.08 0 z M60.644000000000005 31.08 c-0.04 0 -0.08 0.04 -0.08 0.08 c0 0 0.04 0.04 0.08 0.04 s0.04 -0.04 0.04 -0.04 c0 -0.04 0 -0.08 -0.04 -0.08 z M60.844 31 c-0.04 0 -0.04 0.04 -0.04 0.08 c0 0 0 0.04 0.04 0.04 l0 -0.12 z M40.404 24.96 c-0.04 0 -0.08 0.04 -0.08 0.08 c0 0 0.04 0.04 0.08 0.04 s0.04 -0.04 0.04 -0.04 c0 -0.04 0 -0.08 -0.04 -0.08 z M40.684000000000005 24.96 c0 -0.04 0 -0.04 -0.04 -0.04 l0 0.08 c0.04 0 0.04 0 0.04 -0.04 z M40.404 23.2 l-0.04 -0.04 c-0.04 0 -0.04 0.04 -0.04 0.04 c0 0.04 0 0.08 0.04 0.08 c0 0 0.04 -0.04 0.04 -0.08 z M53.164 19.84 c0 -0.04 -0.04 -0.04 -0.08 -0.04 c0 0 -0.04 0 -0.04 0.04 s0.04 0.08 0.04 0.08 c0.04 0 0.08 -0.04 0.08 -0.08 z M58.844 17.92 c-0.04 0 -0.08 0.04 -0.08 0.08 c0 0 0.04 0.04 0.08 0.04 s0.04 -0.04 0.04 -0.04 c0 -0.04 0 -0.08 -0.04 -0.08 z M44.92400000000001 15.920000000000002 c-0.04 0.04 -0.04 0.12 -0.04 0.16 l0.44 0 c-0.04 -0.08 -0.2 -0.16 -0.4 -0.16 z M40.324000000000005 14.36 l0 0.16 c0.04 0 0.04 -0.04 0.04 -0.08 s0 -0.08 -0.04 -0.08 z M40.324000000000005 12.32 l0 0.16 c0.04 0 0.04 -0.04 0.04 -0.08 s0 -0.08 -0.04 -0.08 z M59.244 10.84 l0 0.4 l0.04 -0.2 c0 -0.08 0 -0.12 -0.04 -0.2 z M38.924 11.079999999999998 c-0.04 0 -0.04 0.04 -0.04 0.08 s0 0.08 0.04 0.08 s0.04 -0.04 0.04 -0.08 s0 -0.08 -0.04 -0.08 z M42.284000000000006 11.16 c0 -0.04 -0.04 -0.04 -0.04 -0.04 c-0.04 0 -0.04 0 -0.04 0.04 s0 0.08 0.04 0.08 c0 0 0.04 -0.04 0.04 -0.08 z M37.804 10.760000000000002 c-0.36 0 -0.16 0.28 -0.28 0.32 c0.24 0 0.28 -0.04 0.28 -0.12 c0 -0.04 -0.04 -0.08 -0.04 -0.12 s0.04 -0.04 0.04 -0.08 z M38.764 10.96 l0.12 0.08 l0.04 -0.08 l-0.08 -0.04 z M37.004000000000005 10.84 c-0.04 0 -0.04 0.04 -0.04 0.08 c0 0 0 0.04 0.04 0.04 s0.04 -0.04 0.04 -0.04 c0 -0.04 0 -0.08 -0.04 -0.08 z M37.404 10.68 l-0.28 0.08 l0.28 0 l0 -0.08 z M40.964 10.68 c-0.04 0 -0.08 0.04 -0.08 0.04 c0 0.04 0.04 0.04 0.08 0.04 c0 0 0.04 0 0.04 -0.04 z M45.004000000000005 10.68 l0 0.08 l0.04 0 z M37.604 10.68 l-0.08 0 c0 0.04 0 0.08 0.04 0.08 c0 0 0.04 -0.04 0.04 -0.08 z M38.524 10.64 c-0.08 0 -0.08 0.08 -0.08 0.08 c0.04 0 0.04 -0.04 0.08 -0.08 z M40.244 10.68 l-0.08 0 c0 0.04 0 0.08 0.04 0.08 c0 0 0.04 -0.04 0.04 -0.08 z M46.764 10.64 c-0.08 0 -0.16 0.04 -0.24 0.04 l0.28 0 z M36.404 10.64 c0 0 0 -0.04 -0.04 -0.04 l0 0.08 c0.04 0 0.04 0 0.04 -0.04 z M48.484 10.52 c0 0.16 0.04 0.08 0.08 0.12 c0 0 0.04 0 0.08 -0.04 l-0.08 -0.16 z M59.084 10.120000000000001 l0 0.48 l0.08 0 c0 -0.12 0.04 -0.48 -0.08 -0.48 z M38.044000000000004 10.2 c-0.04 0 -0.08 0.04 -0.08 0.04 c0 0.04 0.04 0.04 0.08 0.04 s0.04 0 0.04 -0.04 c0 0 0 -0.04 -0.04 -0.04 z M36.724000000000004 10.2 l-0.04 -0.08 z M37.204 10.04 c-0.08 0.04 -0.12 0.08 -0.12 0.12 l0.04 0.04 l0.08 0 l0 -0.16 z M91.928 40.44 c-0.08 -0.08 -0.32 -0.24 -0.4 -0.32 c0.08 0 -0.92 -0.92 -0.92 -1.36 c0 -0.16 -0.88 -1.04 -0.88 -1.44 c0 -0.36 -1.16 -0.92 -1.16 -1.72 c-0.56 -1.2 -0.96 -1.2 -1.04 -1.6 c0.04 0 0.08 0 0.08 -0.04 s-0.96 -0.72 -0.76 -1.12 c0 0 -0.04 0.04 -0.08 0.04 c-0.08 0 -0.28 -0.16 -0.88 -1.4 c0 -0.24 -0.84 -0.6 -1 -1.44 c-0.76 -0.52 -0.08 -0.84 -1.68 -2.44 c-0.52 -0.4 0.4 0.36 -1.4 -2.16 c0 -0.08 0 -0.12 0.08 -0.2 c0 -0.08 -0.08 -0.08 -0.28 -0.08 l0 -0.04 c0 -0.2 -0.6 -0.48 -0.6 -0.84 c0 -0.16 -0.36 -0.92 -1 -1.56 c-0.04 0.04 -0.04 0.08 -0.04 0.08 l0 0 s0.04 -0.04 0.04 -0.08 c0 -0.16 -0.16 -0.56 -1.04 -1.52 c0 -0.52 -0.76 -0.68 -0.96 -1.52 c0 -0.16 -1.2 -1.16 -1.24 -1.84 l0 -0.04 c0 -0.24 -0.68 -0.64 -1 -1.44 c0 -0.52 -0.84 -0.76 -0.84 -1.44 c-0.2 0 -0.32 -0.72 -1.36 -1.8 c-0.2 0.04 -0.52 0.2 -0.52 0.36 l0 1.52 c0 0.08 0.04 0.2 0.04 0.28 c0 0.04 -0.04 1.28 -0.04 1.44 c0 1.36 0.04 1.68 0.04 2.08 c0 2.12 -0.04 2.64 -0.04 3.32 c0 1.36 0.12 2.52 0.12 3.96 c0 0.04 -0.08 0.16 -0.08 0.72 l0 11.64 c0.12 0.12 0.32 0.4 0.48 0.4 l2.84 0 c0.4 0 0.92 0.24 0.92 0.8 c0 0.36 -0.28 0.44 -0.6 0.44 l-2.68 0 l-0.48 -0.16 l0.16 0 l-0.24 -0.24 l0 0.32 c-0.28 0.04 -2.64 0.12 -2.64 0.12 c-0.04 0 -0.12 0 -0.2 -0.04 c0.08 -0.04 0.16 -0.08 0.2 -0.16 c-0.32 0 -0.32 0.04 -0.44 0.16 l-0.76 0 l-0.08 -0.08 l0.08 -0.08 l-0.08 -0.08 c-0.08 0.04 -0.4 0.08 -0.4 0.16 l0.08 0.08 c-0.28 0.08 -0.44 0.04 -0.8 0.04 s-0.88 -0.04 -0.88 -0.52 c0 -0.88 1.48 -0.92 2.56 -0.92 l0.16 0.08 l1 0 l0.04 0 c0.36 0 0.36 -1.68 0.36 -2.44 c0 -6.28 -0.16 -7.76 -0.16 -20.56 c0.16 -0.48 0.16 -2.24 0.16 -3.16 c0 -0.88 -0.12 -1.48 -1.28 -1.48 c-1.32 0.08 -0.96 0.32 -1.72 0.32 c-0.56 0 -1.28 -0.2 -1.28 -0.88 c0 -0.44 0.76 -1.04 1.2 -1.04 c1.16 0 -0.12 0.4 3.12 0.4 c0.36 0 0.72 -0.12 0.92 -0.12 c0.6 0 1.2 0.12 1.76 0.12 c0.32 0 0.6 -0.04 0.76 -0.12 c0.12 0.08 0.48 0.08 0.6 0.08 l2.04 0 c0.96 0 1.88 1.96 1.92 1.96 c0.12 0 1.36 2.08 1.36 2.28 c0 0 3.24 4.84 4.12 6.16 l0 0.04 c0 0.08 0.6 0.44 0.6 0.88 l-0.04 0 l-0.04 0 c0 0.12 0.84 0.76 0.84 1.08 c1.12 1.48 0.52 1.36 1.68 2.52 l0.56 1.16 c0.04 0.12 0.92 0.92 0.92 1.36 c0.48 0.04 0.72 1.8 1.4 1.84 c0.16 0 0.4 0 0.4 -0.2 l0 -3.2 c0 -0.04 0.08 -0.28 0.08 -0.32 c0 -0.44 -0.08 -0.68 -0.08 -1.04 c0 -1.28 -0.08 -8.12 -0.08 -12.48 c-0.08 -0.36 -0.24 -0.64 -0.44 -0.8 c-1.4 0 -1.44 0.08 -1.84 0.08 c-1.32 0 -1.64 0.08 -1.64 -0.84 c0 -0.48 0.56 -0.56 1.44 -0.56 c0.68 0 1.76 0.04 3.12 0.16 c0.12 0 0.48 -0.08 0.6 -0.08 c0.16 0 0.48 0.08 0.72 0.08 c0.96 -0.08 1.88 -0.16 2.56 -0.16 c0.04 0.08 0.76 0.24 0.84 0.48 l0 0.68 c-0.04 0.16 -0.72 0.24 -0.92 0.24 c-0.44 0 -1 -0.08 -1.44 -0.08 c-1.32 0.32 -1.56 -0.36 -1.56 1.12 l0 5.96 c0 0.4 0.04 0.56 0.04 1.24 c0 0.84 0 5.8 -0.12 6 c0 -0.08 0.08 3.96 0.08 4.52 c0 1.6 -0.08 1.44 -0.08 1.72 c0 0.2 0.12 0.88 0.12 1.12 l0 -0.12 c0 0 -0.12 0.52 -0.12 3 c0 1.56 0.12 3.24 0.12 3.92 c0 0.28 -0.08 0.44 -0.56 0.96 c0 0.04 0 0.08 -0.04 0.08 s-0.12 -0.2 -0.4 -0.2 z M91.928 40.08 l0 0.04 l0.12 0 z M68.208 39.92 c0.04 0.04 0.04 0.08 0.12 0.08 c-0.04 -0.08 -0.12 -0.08 -0.12 -0.08 z M68.80799999999999 39.92 c-0.08 0 -0.12 0.04 -0.16 0.08 l0.08 0 s0.08 0 0.12 -0.08 l-0.04 0 z M69.80799999999999 39.92 l0.08 0.08 c0.08 0 0.4 -0.24 0.4 -0.64 l-0.24 0 c0 0.24 0.04 0.4 -0.24 0.56 z M71.288 39.92 c0 -0.04 -0.04 -0.04 -0.08 -0.04 c0 0 -0.04 0 -0.04 0.04 s0.04 0.08 0.04 0.08 c0.04 0 0.08 -0.04 0.08 -0.08 z M74.768 39.84 c0 0 -0.04 0.04 -0.04 0.08 s0.04 0.08 0.04 0.08 c0.04 0 0.04 -0.04 0.04 -0.08 s0 -0.08 -0.04 -0.08 z M75.288 39.84 l0 0.08 l0.08 0 l0 -0.08 l-0.08 0 z M76.848 39.84 c-0.04 0 -0.08 0.04 -0.08 0.08 s0.04 0.08 0.08 0.08 s0.04 -0.04 0.04 -0.08 s0 -0.08 -0.04 -0.08 z M70.368 39.8 c-0.04 0 -0.08 0 -0.08 0.04 l0.12 0 c0 -0.04 -0.04 -0.04 -0.04 -0.04 z M76.088 39.76 c-0.08 0 -0.12 0 -0.16 0.04 z M67.928 39.52 l0 0.08 l0 -0.12 l0 0.04 z M67.928 39.36 c0.08 0.04 0.2 0.04 0.28 0.16 c0.08 0 0.24 -0.12 0.28 -0.24 l-0.56 0 l0 0.08 z M76.96799999999999 39.28 l0 0.2 l0.08 0 c0 -0.08 0 -0.16 -0.08 -0.2 z M76.728 39.16 c-0.08 0 -0.24 0.04 -0.24 0.16 c0 0.04 0.04 0.04 0.04 0.08 c0.12 0 0.2 -0.08 0.2 -0.24 z M72.208 38.68 c0 0.08 0.04 0.16 0.12 0.16 s0.28 -0.08 0.28 -0.08 l0 -0.08 l-0.4 0 z M72.728 38.12 l0 0.24 l0.04 0 c0 -0.04 0 -0.12 -0.04 -0.24 z M72.328 36.4 c-0.12 0 -0.12 0.12 -0.12 0.12 l0.12 -0.12 l0 0 z M72.208 34.28 c-0.04 0 -0.04 0.04 -0.04 0.08 l0.08 0 c0 -0.04 0 -0.08 -0.04 -0.08 z M72.608 33.68 l0 0.04 l0.04 0 z M87.448 33.72 l-0.04 0 l0.04 0 z M72.328 32.32 l0.16 0.16 c0 -0.04 0.04 -0.08 0.04 -0.12 s-0.08 -0.12 -0.2 -0.16 c-0.2 0 -0.24 0 -0.32 0.04 c0 0.12 0.04 0.12 0.08 0.16 c0.08 -0.04 0.16 -0.08 0.24 -0.08 z M72.648 31.36 l0.08 0.08 c0.04 -0.04 0.04 -0.08 0.04 -0.16 c0 0 -0.08 0.04 -0.12 0.08 z M72.088 30.36 c-0.04 0 -0.08 0.04 -0.08 0.04 s0.04 0.04 0.08 0.04 s0.04 -0.04 0.04 -0.04 s0 -0.04 -0.04 -0.04 z M72.008 26.36 c-0.04 0 -0.08 0.04 -0.08 0.08 l0.08 0 l0.04 0 c0 -0.04 0 -0.08 -0.04 -0.08 z M72.008 26.04 l0 0.16 c0 0.04 0.04 0.04 0.04 0.04 c0.08 0 0.12 -0.2 0.12 -0.2 l-0.16 0 z M72.008 24.92 c-0.04 0 -0.08 0.04 -0.08 0.04 c0 0.04 0.04 0.04 0.08 0.04 s0.04 0 0.04 -0.04 c0 0 0 -0.04 -0.04 -0.04 z M72.008 18.6 c-0.04 0 -0.08 0.04 -0.08 0.08 s0.04 0.08 0.08 0.08 s0.04 -0.04 0.04 -0.08 s0 -0.08 -0.04 -0.08 z M71.928 18.44 c-0.04 0 -0.04 0.04 -0.04 0.08 l0.08 0 c0 -0.04 0 -0.08 -0.04 -0.08 z M93.128 10.96 c0 0 -0.04 0 -0.04 0.04 s0.04 0.08 0.04 0.08 c0.04 0 0.04 -0.04 0.04 -0.08 s0 -0.04 -0.04 -0.04 z M94.048 10.84 c0 0.12 0.12 0.12 0.16 0.12 l0.16 -0.52 c0.2 0 0.36 0.16 0.6 0.16 c0.04 0 0.08 0 0.08 -0.16 c0 -0.2 -0.32 -0.2 -0.56 -0.2 l0.04 0 s-0.52 0.24 -0.52 0.52 c0 0 0 0.04 0.04 0.08 z M96.088 10.2 l-0.04 -0.04 c0 0.08 0.24 0.64 0.24 0.8 c0.04 0 0.2 0 0.2 -0.48 c0 -0.32 -0.36 -0.24 -0.4 -0.28 z M93.568 10.84 c-0.04 0 -0.04 0.04 -0.04 0.08 c0 0 0 0.04 0.04 0.04 s0.04 -0.04 0.04 -0.04 c0 -0.04 0 -0.08 -0.04 -0.08 z M93.52799999999999 10.760000000000002 c-0.04 0 -0.04 0.04 -0.04 0.04 c0 0.04 0 0.04 0.04 0.04 c0 0 0.04 0 0.04 -0.04 z M70.208 10.559999999999999 c-0.04 0 -0.04 0.04 -0.04 0.04 c0 0.04 0.12 0.12 0.2 0.16 l0 -0.2 l-0.16 0 z M72.52799999999999 10.559999999999999 c0.04 0.04 0.08 0.16 0.08 0.16 c0.04 0 0.04 0 0.04 -0.04 l0 -0.24 l0 0 l-0.04 0 c0 0 -0.04 0.04 -0.08 0.12 z M67.928 10.36 l0 0.16 c0.08 -0.08 0.16 -0.12 0.16 -0.24 c0 -0.04 -0.08 -0.04 -0.12 -0.04 s-0.04 0.04 -0.04 0.04 l0 0.08 z M71.52799999999999 10.36 c0 0.08 0 0.12 0.08 0.16 c0.04 -0.04 0.08 -0.08 0.08 -0.16 l-0.16 0 z M91.088 10.36 l0 0.16 l0.04 0 z M92.088 10.280000000000001 l0 0.24 c0.12 0 0.16 -0.16 0.16 -0.24 l-0.16 0 z M92.408 10.280000000000001 c0 0.16 0.04 0.24 0.12 0.24 c0.04 0 0.04 0 0.04 -0.04 c0 -0.12 -0.08 -0.2 -0.12 -0.2 l-0.04 0 z M88.368 10.239999999999998 l-0.04 0.04 s0.16 0.16 0.28 0.16 c0 0 0.04 0 0.2 -0.16 c0 -0.04 -0.32 -0.04 -0.44 -0.04 z M95.448 10.280000000000001 c-0.12 0 -0.12 0.08 -0.12 0.2 c0.04 0 0.12 -0.12 0.2 -0.2 l-0.08 0 z M69.408 10.280000000000001 c0.04 0.08 0.04 0.12 0.08 0.12 s0.04 -0.04 0.08 -0.04 l0 -0.08 l-0.16 0 z M88.048 10.239999999999998 l0 0.04 l0.04 0 z M111.01199999999999 39.44 c0 -0.52 0.4 -0.76 0.4 -0.84 l3.32 0 c0.28 0 0.08 -0.04 0.6 -0.72 l0 -5.28 c0 -0.04 -0.08 -0.28 -0.08 -0.36 c0 -0.28 0.08 -0.32 0.08 -0.64 c0 -0.36 -0.08 -0.48 -0.08 -0.88 c0 -0.36 0.08 -0.24 0.08 -0.6 c0 -0.2 -0.12 -1.36 -0.12 -1.68 c0 -0.24 0.12 -0.44 0.12 -0.52 c-0.8 -2.04 -1.04 -2.72 -1.88 -3.76 c0 -0.6 -0.88 -0.8 -0.88 -1.56 c0.04 0 0.04 0 0.04 -0.04 s-1.4 -2.6 -1.76 -2.84 c-0.44 -0.44 -0.52 -0.56 -0.52 -0.6 s0.08 0 0.08 -0.12 c0 -0.16 -0.24 -0.72 -1.52 -2.6 c0.04 0 0.04 -0.04 0.04 -0.08 c0 -0.16 -0.72 -0.48 -0.72 -1.24 c0.04 0 0.04 -0.04 0.04 -0.04 c0 -0.24 -1.08 -0.8 -1.08 -1.56 c0 -0.6 -0.76 -1.4 -1.64 -2.32 c0 -0.64 0.64 -0.44 0.64 -0.64 c0 -0.16 -0.16 -0.16 -0.28 -0.16 c-0.08 0 -0.2 0.24 -0.32 0.24 c-0.36 0 -0.36 -0.24 -0.6 -0.24 c0 0.24 0.24 0.48 0.24 0.8 c0 0.08 -0.56 0.2 -0.8 0.2 c0 -0.04 -0.04 -0.04 -0.12 -0.04 c-0.16 0 -0.52 0.08 -0.84 0.08 c-0.4 0 -0.76 -0.12 -0.76 -0.64 c0 -0.44 0 -0.88 0.88 -0.88 c0.32 0.04 2.92 0.08 5.08 0.08 l6.28 0.04 c0.2 0 0.76 -0.04 0.88 -0.04 c0.04 0.08 0.52 0.04 0.52 0.32 c0 0.36 0.04 0.76 -0.36 0.96 c-0.92 0 -1.16 -0.08 -1.32 -0.08 c-0.16 0.2 -1.84 -0.04 -1.84 0.28 c0 1.16 1 1.36 1 2.08 c0 0.04 -0.04 0.08 -0.04 0.12 c0 0.16 0.68 0.56 0.68 0.96 c0 0.28 0.88 0.88 0.88 1.32 c0 0.8 1.08 1.44 1.08 2.04 c-0.04 0.04 -0.04 0.04 -0.04 0.08 c0 0.24 0.8 0.8 0.8 1.32 c0.12 0 0.28 1 0.76 1.36 c0.04 0 0.44 1.04 0.68 1.16 l-0.04 0 c0 0.08 0.4 0.48 0.4 0.76 c-0.04 0.2 0.84 0.88 0.84 1.28 c0 0.56 0.28 0.4 0.4 0.56 c0.56 0 0.8 -0.76 1 -1.28 c0.32 0 1.12 -2.64 1.48 -2.88 c0.16 -1.44 -0.36 1.12 1.24 -2.36 c0.36 -0.16 0.44 -1.28 0.72 -1.48 c0.04 0 0.92 -1.64 0.88 -1.56 c0 -0.64 1.36 -2 1.36 -2.76 l0.2 -0.16 c0 -0.52 0.04 -0.76 -0.2 -0.76 l-0.84 0 c-0.08 -0.04 -0.16 -0.08 -0.2 -0.16 l-1.08 0 c-0.12 0.24 -0.72 0.24 -1.04 0.24 c-0.4 0 -0.4 0.04 -1.04 -0.6 c0 -0.8 0.4 -0.6 0.64 -0.84 l2.12 0 c0.08 0 0.24 -0.08 0.28 -0.08 c0.32 0 0.56 0.08 0.8 0.16 c0.32 0 3.48 -0.16 3.6 -0.16 c0.36 0 0.52 0.08 0.8 0.08 c0.12 0 0.44 -0.08 0.64 -0.08 c0.04 0.08 0.08 0.08 0.12 0.08 c0.08 0 0.16 -0.04 0.28 -0.04 c0.2 0 0.44 0.12 0.72 0.68 c0 0.92 -0.76 0.84 -1.16 0.84 c-0.2 0 -1.04 0 -1.36 -0.2 l0.08 -0.08 c0 -0.16 -0.32 -0.16 -0.32 -0.16 c-0.64 0 -1.16 0.52 -1.68 1.32 c-0.16 0 -0.6 2.48 -1.64 2.96 c0 0.96 -0.68 1.08 -0.68 1.64 c0 0.04 0.04 0.04 0.04 0.08 c0 0.24 -0.52 0.48 -0.52 0.72 c-0.08 0.88 -0.6 0.92 -0.96 1.84 c-0.16 -0.36 -0.08 0.84 -0.36 0.92 c0.4 -0.12 -0.52 0.24 -0.52 0.8 c0.04 0 0.04 0 0.04 0.04 c0 -0.04 0 -0.04 -0.04 -0.04 c-0.08 0 -0.72 1.44 -0.92 1.56 c0 0.2 -0.32 0.56 -0.32 0.76 c0.04 0 0.04 0.04 0.04 0.08 c0 0.16 -0.72 0.64 -0.72 1.2 c-0.64 1.28 -0.64 1.2 -0.64 1.76 l0 6.84 c0 0.08 -0.12 0.36 -0.12 0.36 c0 0.04 0.04 0.16 0.12 0.36 l0 4 c0 0.44 0.16 0.6 0.52 0.6 c0.56 0 0.92 -0.08 2.44 -0.08 c0.52 0 1.04 0.04 1.28 0.28 c0 0.96 -0.2 0.88 -0.32 0.96 l0 -0.32 c-0.16 0 -0.36 -0.04 -0.36 0.16 c0 0.04 0.04 0.12 0.16 0.2 c-0.16 0 -0.36 0.12 -0.44 0.12 c-0.28 0 -0.92 -0.12 -1.36 -0.16 c-0.4 0 -0.24 0.04 -0.32 0.12 c-0.44 0 -0.76 -0.12 -0.8 -0.12 l-0.72 0 l0.08 0.04 l-0.16 0 c-0.08 0 -0.84 0.08 -0.92 0.08 c-1.48 0 -1.2 0 -1.48 -0.08 c-0.04 0 -0.32 0.08 -0.44 0.08 l-5.48 0 c-0.32 0 -0.56 0.08 -0.92 0.08 c-0.12 0 -0.88 -0.28 -0.88 -0.52 c0 -0.04 0.04 -0.08 0.08 -0.12 z M111.41199999999999 39.56 c0 0.24 0.12 0.32 0.28 0.32 l0.08 -0.04 l0 0.04 c0 -0.16 -0.04 -0.32 -0.36 -0.32 z M112.73199999999999 39.76 c0 0.12 0.04 0.12 0.08 0.12 c0.08 0 0.2 -0.16 0.24 -0.28 l-0.08 -0.08 c0 0.04 -0.24 0.04 -0.24 0.24 z M113.29199999999999 39.56 c0 0.16 0.16 0.32 0.4 0.32 c0.32 0 0.24 0 0.32 -0.04 c-0.08 -0.48 -0.04 -0.52 -0.24 -0.68 c-0.2 0 -0.48 0.36 -0.48 0.4 z M114.29199999999999 39.6 l0.04 0.08 c0.12 -0.12 0.04 -0.12 0.08 -0.12 c-0.08 0 -0.12 0 -0.12 0.04 z M122.65199999999999 39.56 l0 0.12 c0.08 0 0.12 -0.12 0.12 -0.12 l-0.12 0 z M120.73199999999999 39.6 l-0.08 -0.04 z M116.13199999999999 39.44 c-0.04 0 -0.08 0.04 -0.12 0.08 l0.12 0.04 l0 -0.12 z M111.332 39.32 l0 0.12 l0.16 0 c-0.08 -0.12 -0.12 -0.12 -0.16 -0.12 z M122.77199999999999 39.36 c-0.04 0 -0.08 0.04 -0.08 0.08 s0.04 0.08 0.08 0.08 s0.04 -0.04 0.04 -0.08 s0 -0.08 -0.04 -0.08 z M124.172 39.16 l0 0.16 c0.04 -0.04 0.08 -0.08 0.08 -0.16 l-0.08 0 z M124.65199999999999 39.24 l0.08 0.08 c0.12 -0.16 0.16 -0.2 0.16 -0.4 c-0.12 0 -0.24 0.04 -0.24 0.32 z M114.77199999999999 25.880000000000003 c-0.04 0 -0.04 0.04 -0.04 0.08 s0 0.08 0.04 0.08 s0.04 -0.04 0.04 -0.08 s0 -0.08 -0.04 -0.08 z M122.692 22.6 l0 0 c-0.04 0 -0.04 0.08 -0.04 0.08 c0.04 0 0.04 -0.04 0.04 -0.08 z M124.252 19 c0.04 0.12 0.08 0.24 0.12 0.28 c0 -0.16 0 -0.28 -0.12 -0.28 z M110.09199999999998 17.48 c-0.04 0 -0.08 0.04 -0.08 0.08 c0 0 0.04 0.04 0.08 0.04 s0.04 -0.04 0.04 -0.04 c0 -0.04 0 -0.08 -0.04 -0.08 z M126.692 14.760000000000002 c-0.16 0.12 -0.12 0.28 -0.12 0.32 c0.04 0 0.2 -0.12 0.2 -0.16 c0 -0.12 -0.04 -0.08 -0.08 -0.16 z M127.252 12.96 c-0.04 0 -0.08 0.04 -0.08 0.04 c0 0.04 0.04 0.04 0.08 0.04 l0 -0.08 z M128.132 12.079999999999998 c-0.04 0 -0.08 0.04 -0.08 0.04 c0 0.04 0.04 0.04 0.08 0.04 c0 0 0.04 0 0.04 -0.04 z M103.332 11.04 c-0.04 0 -0.08 0.04 -0.08 0.04 c0 0.04 0.04 0.08 0.08 0.08 s0.04 -0.04 0.04 -0.08 c0 0 0 -0.04 -0.04 -0.04 z M104.49199999999999 11.04 l0.08 0.04 c0.08 0 0.08 -0.04 0.08 -0.12 c-0.08 0 -0.12 0 -0.16 0.08 z M128.37199999999999 10.96 c0 0.04 -0.04 0.04 -0.04 0.08 s0.04 0.04 0.12 0.04 l0 -0.12 l-0.08 0 z M124.77199999999999 10.920000000000002 l0 0.04 l0.12 0 c-0.08 -0.04 -0.12 -0.04 -0.12 -0.04 z M130.85199999999998 10.920000000000002 c-0.04 0 -0.08 0.04 -0.08 0.08 c0 0 0.04 0.04 0.08 0.04 l0 -0.12 z M132.41199999999998 10.64 c-0.28 0 -0.24 0.16 -0.24 0.4 c0.16 -0.04 0.32 -0.08 0.32 -0.32 z M102.93199999999999 10.64 c0 0.08 0.16 0.2 0.2 0.28 l0 -0.16 c0 -0.08 0 -0.2 -0.04 -0.24 c-0.12 0 -0.16 0.04 -0.16 0.12 z M125.692 10.920000000000002 c0 -0.04 -0.04 -0.04 -0.04 -0.04 c-0.04 0 -0.04 0 -0.04 0.04 s0 0.04 0.04 0.04 c0 0 0.04 0 0.04 -0.04 z M104.09199999999998 10.36 c-0.04 0.04 -0.04 0.08 -0.04 0.12 c0 0.2 0.4 0.12 0.44 0.24 c0 0 0.08 0 0.12 -0.12 c-0.08 -0.08 -0.36 -0.24 -0.52 -0.24 z M123.892 10.64 c-0.04 0 -0.08 0.04 -0.08 0.04 c0 0.04 0.04 0.04 0.08 0.04 c0 0 0.04 0 0.04 -0.04 z M114.65199999999999 10.600000000000001 l0.08 0.04 l0.12 -0.04 l-0.08 -0.08 c-0.04 0 -0.08 0.04 -0.12 0.08 z M126.452 10.04 c0 0.08 0.08 0.6 0.44 0.6 c0.04 0 0.12 -0.04 0.12 -0.28 c0 -0.04 -0.44 -0.32 -0.56 -0.32 z M128.25199999999998 10.600000000000001 c-0.04 0 -0.08 0 -0.08 0.04 l0.08 0 l0.04 0 c0 -0.04 0 -0.04 -0.04 -0.04 z M116.21199999999999 10.52 l0 0 s-0.12 0 -0.12 0.08 c0.12 0 0.12 0 0.12 -0.08 z M130.85199999999998 10.36 l0 0 c-0.04 0 -0.08 0 -0.08 0.08 s0.04 0.16 0.08 0.16 l0 -0.24 z M131.332 10.600000000000001 c0 -0.04 -0.04 -0.04 -0.04 -0.04 c-0.04 0 -0.04 0 -0.04 0.04 s0 0.04 0.04 0.04 c0 0 0.04 0 0.04 -0.04 z M131.492 10.52 c-0.04 0 -0.08 0.04 -0.08 0.08 c0 0 0.04 0.04 0.08 0.04 l0.04 -0.04 c0 -0.04 -0.04 -0.08 -0.04 -0.08 z M131.492 10.440000000000001 c0.04 0.08 0.08 0.2 0.12 0.2 s0.04 -0.12 0.04 -0.2 c0 -0.04 0 -0.08 -0.04 -0.08 c-0.12 0 -0.12 0 -0.12 0.08 z M103.13199999999999 10.280000000000001 c0 0 -0.04 0.04 -0.04 0.08 l0.08 0 c0 -0.04 -0.04 -0.08 -0.04 -0.08 z M132.25199999999998 10.280000000000001 l0.04 -0.08 z M141.056 38.84 c-0.36 0 -0.56 0.08 -0.8 0.12 c-0.36 0 -0.28 0 -0.32 -0.04 l-0.12 0.04 c0 0.12 0.04 0.12 0.12 0.16 c0 -0.04 -0.12 0.08 -0.2 0.24 l0.04 0 c0 0.04 -1.28 1.04 -1.48 1.04 c-0.92 0 -0.92 -1.08 -0.92 -1.24 c0 -0.08 0 -0.08 0.04 -0.2 c0 -4.48 -0.2 -3.8 -0.2 -6.48 c0 0 0.04 -0.04 0.04 -0.08 c0 -0.12 -0.08 -0.32 -0.08 -0.52 c0 -0.36 0.16 -0.6 1.2 -0.6 c0.12 0 0.28 0.12 0.64 0.76 c0 0.2 0.72 0.8 0.8 1.16 c-0.04 0.04 -0.08 0.08 -0.08 0.12 c0 0.16 0.6 0.4 0.6 0.64 c0 0.04 -0.04 0.08 -0.04 0.08 c0 0.24 0.4 0.44 0.4 0.56 c0.48 0.88 0.52 0.84 1.16 1.48 c0.2 0 1.68 2.64 2.8 2.64 c1.44 0.12 1.72 0.64 3.24 0.64 c0.84 0 0.72 -0.04 1 -0.2 c-0.08 0.08 -0.04 0.08 -0.08 0.08 c0 0 0.28 -0.4 1.6 -0.4 c0.6 0 1.76 -1.12 2 -1.28 c0.08 -0.08 0.48 -0.24 0.48 -0.32 c0 -0.24 0.84 -1.4 0.96 -1.52 c-0.04 -0.08 -0.04 -0.16 -0.04 -0.2 c0 -0.6 0.64 0.32 0.64 -3.4 c-0.04 -0.12 -0.16 -1.4 -0.44 -1.64 c-0.12 0 -0.12 -0.92 -1.08 -1.56 c0 -0.04 0.04 -0.24 0.04 -0.32 c-1.56 -0.08 -0.76 -0.88 -1.8 -0.88 c-1.96 0 -0.4 -0.6 -2.52 -0.6 c-0.2 -0.2 -1.96 -0.16 -2.36 -0.4 c-0.08 0 -0.36 0.08 -0.44 0.08 c-0.48 0 -0.08 -0.4 -1.16 -0.4 c-3.64 -0.2 -1.68 -0.88 -2.92 -0.88 l0 -0.08 c0.12 0 0.28 -0.04 0.4 0.08 c0 0 0.2 -0.08 0.2 -0.12 c0 0 -0.08 -0.08 -0.08 -0.12 l-1.24 0 c-0.4 -0.36 -0.36 -0.6 -0.68 -0.68 c0 -0.04 -0.44 0.04 -1.12 -0.88 c0 -0.28 -0.88 -1.32 -1.08 -1.48 c-0.36 -1.88 -0.8 -3 -0.8 -4.44 c0.08 -0.44 0 -1 0.16 -1.28 l0 0.04 c0.04 0 0.2 -1.36 0.32 -1.28 c-0.04 0 -0.08 -0.04 -0.08 -0.08 c0 -0.32 0.84 -1.2 0.84 -1.52 c-0.04 -0.04 -0.04 -0.08 -0.04 -0.08 c0 -0.28 0.64 -0.56 0.64 -0.68 s0.52 -0.96 0.76 -1.12 c-0.04 0.04 -0.04 0.08 -0.04 0.08 c-0.04 0 1.96 -1.32 2 -1.36 c2.44 -0.4 0.32 -1.08 3.04 -1.08 l3.92 0 c0.08 0 0.92 0 1.32 0.32 c1.64 0.08 1.36 1.04 2.08 1.04 c1.32 0 0.96 -0.08 1.36 -0.48 c-0.16 -0.2 1.08 -0.04 1.2 -0.56 l0.52 0 c0.08 0 0.4 0.32 0.44 0.4 c0.12 4.96 0.36 4.84 0.36 7.44 c0 0.2 -0.36 0.32 -0.52 0.64 l-0.56 0 l0 -0.16 c-0.12 0 -0.96 -0.56 -0.96 -1 l0 0.04 c-0.04 0 -0.32 -1 -0.76 -1.16 l0.04 0 c0 -0.12 -0.52 -0.52 -0.52 -0.8 c-0.6 -0.88 -0.52 -0.84 -1 -1.32 l0.04 0 c0 -0.04 -1 -0.64 -1 -0.92 c0 -0.6 -1.48 -1.32 -1.8 -1.64 c0.12 -0.24 -1.04 -0.56 -2.2 -0.56 c-0.04 0 -0.08 0.04 -0.12 0.04 c-0.4 0 -0.24 -0.68 -0.36 -0.68 c-0.08 0.08 -0.12 0.08 -0.16 0.16 c-0.04 0 -0.2 -0.04 -0.32 -0.08 c-0.24 0.88 -0.64 0.4 -0.76 0.64 c-0.24 -0.12 -0.08 -0.24 -0.24 -0.28 c-0.84 0.4 -0.6 0.36 -2.44 1.28 c-1.2 2.36 -0.56 -0.56 -1.88 3.04 l0 1.76 l0 -0.04 c0.04 0 0.2 1.56 0.56 1.76 c0.08 0.12 0.6 0.52 0.76 0.84 c0.28 0 0.64 1.04 1.8 1.04 c0.48 0.52 2.36 0.4 4.28 0.88 c0.56 0.16 3.48 0.16 4.16 0.96 l-0.04 0 c0 0.08 0.96 0.16 1.12 0.28 c0 -0.08 1.92 1.12 1.92 1.36 c0 0.04 0 0.04 -0.04 0.04 c0.68 0 1.36 1.52 1.64 1.72 c0.2 1.44 0.76 1 0.76 2.12 c0.48 1.52 0.4 1.88 0.4 3.76 c-0.12 0.12 -0.2 1.52 -0.4 1.6 c0 2.04 -1.04 1.92 -1.04 2.8 l-0.52 0.48 c0 0.08 -0.04 0.24 -0.04 0.24 c-0.8 0.72 -0.52 0.84 -0.88 1 c-0.12 0 -0.32 0.6 -1 0.8 c-0.76 1.16 -1.08 0.24 -1.88 1.4 c-3.6 0 0.08 0.88 -3.92 0.88 c-4.56 0 -2.96 -0.12 -4.44 -0.48 c-0.04 0 -0.04 0.04 -0.08 0.04 c-0.24 0 -0.6 -0.32 -0.92 -0.32 c0 -0.04 -0.6 -0.12 -0.6 -0.2 c0 0.04 0.04 0.04 0.04 0.04 c0 -0.04 -0.56 -0.84 -1 -0.84 c-0.08 0 -0.16 0.04 -0.24 0.08 z M148.656 40.28 c-0.04 0 -0.04 0.04 -0.04 0.08 c0 0 0 0.04 0.04 0.04 s0.04 -0.04 0.04 -0.04 c0 -0.04 0 -0.08 -0.04 -0.08 z M145.656 40.2 c-0.04 0 -0.04 0.04 -0.04 0.04 c0 0.04 0 0.04 0.04 0.04 s0.04 0 0.04 -0.04 c0 0 0 -0.04 -0.04 -0.04 z M149.45600000000002 40.2 c-0.04 0 -0.08 0.04 -0.08 0.08 s0.04 0.08 0.08 0.08 s0.04 -0.04 0.04 -0.08 s0 -0.08 -0.04 -0.08 z M148.57600000000002 40.12 c-0.04 0 -0.08 0.04 -0.08 0.08 s0.04 0.08 0.08 0.08 s0.04 -0.04 0.04 -0.08 s0 -0.08 -0.04 -0.08 z M149.45600000000002 40.04 c-0.08 0 -0.12 0 -0.12 0.04 l0.04 0.04 l0.08 0 l0 -0.08 z M146.536 40.04 c-0.04 0 -0.04 0 -0.04 0.04 c0 0 0 0.04 0.04 0.04 s0.04 -0.04 0.04 -0.04 c0 -0.04 0 -0.04 -0.04 -0.04 z M149.45600000000002 39.76 l0 0.2 c0.08 -0.04 0.16 -0.12 0.2 -0.2 l-0.2 0 z M150.536 39.64 c-0.36 0 -0.36 0.12 -0.36 0.24 c0.04 0 0.12 -0.04 0.2 -0.08 c0.04 0 0.16 0.04 0.24 0.08 l0.16 -0.08 s0 -0.16 -0.24 -0.16 z M145.776 39.68 l0 0.08 l0.16 0 l0 -0.08 l-0.16 0 z M147.776 39.68 c-0.04 0 -0.04 0.04 -0.04 0.08 c0 0 0 0.04 0.04 0.04 s0.04 -0.04 0.04 -0.04 c0 -0.04 0 -0.08 -0.04 -0.08 z M148.89600000000002 39.68 c-0.04 0 -0.08 0.04 -0.08 0.08 c0 0 0.04 0.04 0.08 0.04 s0.04 -0.04 0.04 -0.04 c0 -0.04 0 -0.08 -0.04 -0.08 z M145.216 39.44 c-0.04 0 -0.08 0 -0.08 0.04 l0.08 0 l0.04 0 c0 -0.04 0 -0.04 -0.04 -0.04 z M143.97600000000003 39.32 c-0.04 0 -0.08 0 -0.12 0.04 z M143.85600000000002 39.16 c-0.04 0 -0.08 0.04 -0.08 0.08 s0.04 0.08 0.08 0.08 s0.04 -0.04 0.04 -0.08 s0 -0.08 -0.04 -0.08 z M143.97600000000003 39.12 c-0.04 0 -0.04 0.04 -0.04 0.08 c0 0 0 0.04 0.04 0.04 s0.04 -0.04 0.04 -0.04 c0 -0.04 0 -0.08 -0.04 -0.08 z M138.25600000000003 39.04 c-0.04 0 -0.08 0.04 -0.08 0.08 c0 0 0.04 0.04 0.08 0.04 l0.04 -0.04 c0 -0.04 -0.04 -0.08 -0.04 -0.08 z M143.85600000000002 39.04 c-0.04 0 -0.08 0.04 -0.08 0.08 c0 0 0.04 0.04 0.08 0.04 s0.04 -0.04 0.04 -0.04 c0 -0.04 0 -0.08 -0.04 -0.08 z M137.69600000000003 38.92 c-0.04 0 -0.08 0.04 -0.08 0.04 c0 0.04 0.04 0.08 0.08 0.08 c0 0 0.04 -0.04 0.04 -0.08 z M144.17600000000002 38.96 l-0.08 0 c0 0.04 0 0.08 0.04 0.08 c0 0 0.04 -0.04 0.04 -0.08 z M152.01600000000002 38.92 c-0.04 0 -0.04 0.04 -0.04 0.04 l0.08 0 c0 0.04 0 -0.04 -0.04 -0.04 z M137.69600000000003 38.24 l0 -0.16 l0 0.16 z M153.85600000000002 38.16 c-0.04 0 -0.08 0.04 -0.08 0.08 l0.12 0 c0 -0.04 -0.04 -0.08 -0.04 -0.08 z M154.41600000000003 37.68 l0 0.08 l0.04 0 z M154.29600000000002 37.56 c-0.04 0 -0.08 0.04 -0.08 0.08 c0 0 0.04 0.04 0.08 0.04 s0.04 -0.04 0.04 -0.04 c0 -0.04 0 -0.08 -0.04 -0.08 z M154.536 37.6 l0.08 -0.04 z M154.776 37.36 l0 0 l-0.08 0.08 c0.04 -0.04 0.04 -0.08 0.08 -0.08 z M137.816 37.32 c-0.04 0 -0.08 0 -0.08 0.04 c0 0 0.08 0 0.08 -0.04 l0 0 z M137.69600000000003 36.92 l0 0.24 l0.04 0 c0 -0.04 0 -0.2 -0.04 -0.24 z M156.01600000000002 36.04 c-0.04 0 -0.04 0.04 -0.04 0.04 s0 0.04 0.04 0.04 s0.04 -0.04 0.04 -0.04 s0 -0.04 -0.04 -0.04 z M154.776 32.76 l0.08 0.04 l0.08 -0.04 l-0.16 0 z M137.69600000000003 32.12 l-0.08 0 c0 0.04 0 0.08 0.04 0.08 c0 0 0.04 -0.04 0.04 -0.08 z M157.616 31.439999999999998 l0 -0.04 c-0.04 0 -0.04 0 -0.04 0.04 s0 0.08 0.04 0.08 l0 -0.08 z M140.816 24.68 c-0.04 0 -0.08 0.04 -0.08 0.08 s0.04 0.08 0.08 0.08 s0.04 -0.04 0.04 -0.08 s0 -0.08 -0.04 -0.08 z M139.17600000000002 22.96 c-0.04 0 -0.08 0.04 -0.08 0.08 c0 0 0.04 0.04 0.08 0.04 l0.04 -0.04 c0 -0.04 -0.04 -0.08 -0.04 -0.08 z M152.01600000000002 22.56 c-0.04 0 -0.04 0.04 -0.04 0.08 c0 0 0 0.04 0.04 0.04 s0.04 -0.04 0.04 -0.04 c0 -0.04 0 -0.08 -0.04 -0.08 z M138.69600000000003 22.4 l0 0.08 l0.08 -0.08 l-0.08 0 z M142.496 22.04 c0 0 -0.04 0 -0.04 0.04 l0.08 0 c0 -0.04 -0.04 -0.04 -0.04 -0.04 z M146.45600000000002 21.52 c-0.08 0 -0.28 0.08 -0.28 0.12 s0.04 0.04 0.04 0.04 c0.08 0 0.16 -0.08 0.24 -0.16 z M137.936 20.36 c-0.04 0 -0.08 -0.04 -0.08 0.2 c0 0.04 0.04 0.12 0.04 0.12 c0.04 0 0.08 -0.08 0.08 -0.12 c0 -0.08 -0.04 -0.16 -0.04 -0.2 z M137.816 19.96 c-0.04 0 -0.08 0.04 -0.08 0.08 s0.04 0.08 0.08 0.08 l0 -0.16 z M154.936 12.920000000000002 c-0.04 0 -0.08 0.04 -0.08 0.08 c0 0 0.04 0.04 0.08 0.04 s0.04 -0.04 0.04 -0.04 c0 -0.04 0 -0.08 -0.04 -0.08 z M155.496 12.920000000000002 c-0.04 0 -0.04 0.04 -0.04 0.08 c0 0 0 0.04 0.04 0.04 s0.04 -0.04 0.04 -0.04 c0 -0.04 0 -0.08 -0.04 -0.08 z M155.656 12.920000000000002 c-0.04 0 -0.08 0.04 -0.08 0.08 c0 0 0.04 0.04 0.08 0.04 l0.04 -0.04 c0 -0.04 -0.04 -0.08 -0.04 -0.08 z M146.69600000000003 12.04 l0 -0.44 c0.04 -0.04 0.12 -0.08 0.16 -0.12 l0.08 0.08 c0 0.12 -0.16 0.32 -0.16 0.56 z M155.496 11.879999999999999 c-0.04 0 -0.04 0.04 -0.04 0.08 c0 0 0 0.04 0.04 0.04 s0.04 -0.04 0.04 -0.04 c0 -0.04 0 -0.08 -0.04 -0.08 z M142.376 11.68 c-0.2 0.04 -0.2 0.2 -0.2 0.2 c0.04 -0.04 0.2 -0.12 0.2 -0.16 l0 -0.04 z M141.41600000000003 11.48 c0 0.08 0.12 0.12 0.2 0.12 c-0.04 -0.12 -0.2 -0.12 -0.24 -0.12 l0.04 0 z M155.336 11.559999999999999 c0.04 0.04 0.08 0.04 0.12 0.04 c0.16 0 0.2 -0.12 0.2 -0.24 z M142.056 11.239999999999998 c-0.12 0 -0.08 0.12 -0.08 0.24 l0.08 0 l0 -0.24 z M149.97600000000003 10.879999999999999 c-0.12 0.2 -0.08 0.36 -0.08 0.52 c0.16 -0.04 0.2 -0.24 0.2 -0.44 c-0.04 -0.04 -0.04 -0.08 -0.12 -0.08 z M142.056 11.04 c-0.04 0 -0.08 0 -0.08 0.04 l0.08 0 l0.04 0 c0 -0.04 0 -0.04 -0.04 -0.04 z M154.936 10.96 c0 -0.04 -0.04 -0.04 -0.12 -0.04 c-0.04 0 -0.08 0 -0.08 0.04 s0.04 0.08 0.08 0.08 c0.08 0 0.12 -0.04 0.12 -0.08 z M155.096 10.84 c-0.04 0 -0.08 0.04 -0.08 0.04 l0.04 0 l0.04 0 l0 -0.04 z M151.13600000000002 10.84 l-0.04 -0.04 z M148.656 10.8 c0 -0.04 -0.04 -0.04 -0.04 -0.04 s-0.04 0 -0.04 0.04 s0.04 0.04 0.04 0.04 s0.04 0 0.04 -0.04 z M154.096 10.8 c0 -0.04 -0.04 -0.04 -0.04 -0.04 c-0.04 0 -0.04 0 -0.04 0.04 s0 0.04 0.04 0.04 c0 0 0.04 0 0.04 -0.04 z M154.616 10.719999999999999 c-0.04 0 -0.08 0.04 -0.08 0.08 c0 0 0.04 0.04 0.08 0.04 s0.04 -0.04 0.04 -0.04 c0 -0.04 0 -0.08 -0.04 -0.08 z M155.496 10.64 l0 0.16 l0.08 -0.08 z M143.336 10.32 c0 0.12 0.08 0.28 0.08 0.4 l0.08 -0.2 s-0.04 -0.16 -0.08 -0.28 z M150.376 10.48 c-0.04 0 -0.08 0.04 -0.08 0.04 s0.04 0.04 0.08 0.04 s0.04 -0.04 0.04 -0.04 s0 -0.04 -0.04 -0.04 z M154.73600000000002 10.239999999999998 c-0.12 0.04 -0.16 0.16 -0.2 0.28 c0.24 0 0.2 -0.12 0.2 -0.28 z M155.496 10.48 l0 0.04 l0.08 0 z M155.496 10.239999999999998 c-0.04 0 -0.04 0.04 -0.04 0.04 c0 0.04 0 0.04 0.04 0.04 s0.04 0 0.04 -0.04 c0 0 0 -0.04 -0.04 -0.04 z M147.13600000000002 10.079999999999998 c-0.04 0.12 0.2 0.16 0.2 0.16 c0.08 -0.12 0.48 0.04 0.44 -0.16 l-0.64 0 z M149.656 10.16 l-0.08 0 c0 0.04 0 0.08 0.04 0.08 c0 0 0.04 -0.04 0.04 -0.08 z M144.89600000000002 10 l0 0.08 l0.16 0 l0 -0.08 l-0.16 0 z M145.656 9.920000000000002 c-0.12 0 -0.28 0.12 -0.32 0.16 l0.32 0 l0 -0.16 z M148.656 10 l0 0.08 l0.24 0 z"
		></path>
	</g>
	<g
		id="SvgjsG1009"
		featurekey="nameFeature-1"
		transform="matrix(1.8128658966306506,0,0,1.8128658966306506,0.5943292848173122,276.2339190538938)"
		fill="url(#SvgjsLinearGradient1021)"
	>
		<path
			d="M12.36 34.56 l0 -0.2 c-0.04 0 -0.44 -1.2 -0.52 -1.36 c0.04 0 0.04 -0.04 0.04 -0.04 c0 -0.12 -0.36 -0.48 -0.36 -0.96 c0 -0.12 0 -0.12 0.08 -0.24 l-0.2 0 l-0.2 -0.4 l0.04 0 c0 -0.16 -0.68 -1.16 -0.68 -1.68 c0 -0.2 -0.64 -1.12 -0.64 -1.68 c0.12 -0.2 -0.52 -0.64 -0.52 -1.2 c-0.12 -0.64 0 -0.24 -0.64 -1.92 c0.04 -0.04 0.16 -0.08 0.24 -0.12 c0 -0.12 0 -0.08 -0.04 -0.12 c-0.28 0 -0.2 0 -0.32 0.04 c0 -0.4 -0.08 -0.6 -0.28 -0.76 c-0.36 -2.4 -1 -1.2 -1 -2.92 c0.04 0.04 -0.68 -0.96 -0.84 -2.04 l0.04 -0.04 c0 -0.2 -0.48 -0.52 -0.48 -1.2 c0 0 0.04 0 0.04 -0.04 c0 -0.24 -0.64 -0.96 -0.64 -1.48 c-0.12 0.08 -0.16 -1.04 -0.4 -1.24 c0.04 -0.4 -0.72 -1.16 -0.76 -2.12 c0 -0.16 -0.52 -1.6 -0.8 -1.6 c-0.04 0 -0.24 0.2 -0.32 0.2 l-1.52 0 c-0.04 0.04 -0.28 0.08 -0.32 0.12 c-0.68 0 -0.68 0 -1.08 -0.44 c0 -0.4 -0.6 -0.92 2.12 -0.92 l0.08 -0.08 c0.32 0 0.4 0.16 1.72 0.16 c2.64 0 4.76 -0.16 6.24 -0.16 c0.48 0 0.92 0.16 1.88 0.16 c0.4 0 1.12 -0.08 1.08 -0.16 c0.08 0 0.2 0.08 0.2 0.08 l1.12 0 l0.08 -0.08 s0.12 0 0.24 0.08 l0.76 0 l0.12 -0.08 c0.32 0 0.4 0 0.6 0.08 c0 0.08 0.04 -0.08 0.44 -0.08 c0.32 0 0.56 0.16 0.96 0.16 c1.2 0 0.8 -0.2 2.2 -0.2 c0.48 0 0.76 0.2 1.72 0.2 c6.88 0 5.48 -0.48 6.52 -0.48 c0.12 0.2 1.84 0.04 1.84 0.72 s-0.36 0.96 -1.16 0.96 c-0.04 0 -0.2 -0.12 -0.56 -0.12 c-0.72 0 -1.52 0.08 -1.6 0.72 l0 -0.04 c-0.08 0 -0.44 1.44 -0.52 1.44 c0 1.8 -0.64 0.76 -0.64 2.04 c-0.2 1.08 -0.56 0.44 -0.56 1.52 c0 0.32 -0.72 1.88 -0.72 1.84 c0 0.4 0.72 1.64 0.72 2.4 c0 0.8 0.6 1 0.6 1.44 c0 0.84 0.72 1.2 0.72 2.12 c0 1 0.76 1.24 0.84 2.2 c0 0.04 0 0.44 0.96 2.44 c0 0.08 0.28 1.4 0.84 1.4 c0 -0.08 0.56 -0.08 0.6 -0.24 c0 -0.08 -0.04 -0.2 -0.08 -0.28 c0 -0.36 0.56 -1.56 0.56 -1.92 c-0.04 0 -0.04 0 -0.04 -0.04 c0 -0.2 0.52 -0.8 0.52 -1.12 c0 -0.04 -0.04 -0.04 -0.04 -0.08 l0.04 0 c0.04 0 0.88 -2.28 0.88 -2.52 c0 0 -0.04 0 -0.04 -0.04 c0 -0.12 0.68 -0.72 0.68 -1.6 c0.08 -2 0.96 -1.76 0.96 -3 c0 0 -0.08 0.2 -0.08 0.28 l0 0 s0.16 -0.48 0.92 -2.64 c-0.04 0 -0.04 -0.04 -0.04 -0.08 c0 -0.28 0.6 -1.28 0.6 -1.68 c0.32 -0.88 0.32 -0.88 0.48 -1.2 c0 -1.8 0.92 -1.8 0.92 -2.88 c0 -0.28 -0.28 -0.52 -0.92 -0.56 c-0.08 0.04 -0.2 0.12 -0.24 0.12 s-0.12 -0.04 -0.28 -0.12 c-1.08 0.04 -0.8 0.08 -1.16 0.08 c-0.12 0 -0.16 -0.08 -0.2 -0.16 l-0.32 0 s-0.04 0.04 0.08 0.16 l-0.48 0 c-0.44 -0.04 -0.44 -0.56 -0.44 -0.56 l0 0 c0 -0.6 0.68 -0.92 2.48 -0.92 c0.28 0 0.96 0.2 1.12 0.2 c0.04 0 0.12 -0.04 0.4 -0.04 l1.48 -0.08 l3.12 0 c0 0.04 0.96 0.12 0.96 0.76 c0 0.8 -0.84 0.88 -1 0.88 c-0.4 0 -0.96 -0.32 -1.84 -0.32 c-0.32 0.04 -0.4 0.08 -0.64 0.08 c0.04 0 -0.6 0.16 -0.6 0.84 c0 0.04 0.04 0.08 0.04 0.12 c0 0.36 -0.68 1.08 -0.68 1.8 c-0.12 1.6 -0.76 0.96 -0.76 2.08 c-0.28 1.44 -0.96 2.24 -0.96 2.84 c-0.6 3 -1.32 2.4 -1.32 4.04 c0 0.12 -0.56 0.76 -0.56 1.6 c0 0 0.04 0 0.04 0.04 c0 0.12 -0.84 1.12 -0.84 1.96 c0 0.16 0.04 0.2 0.04 0.24 c0 0.12 -0.6 0.76 -0.6 1.56 c-0.32 1.68 -1 1.76 -1 2.8 c-0.28 1.28 -0.8 1.56 -0.8 2.52 c-0.32 1.52 -1 2.36 -1 2.56 c-0.2 1.28 -0.56 0.64 -0.56 1.8 c-0.36 2.08 -0.76 2.76 -1.8 2.76 c0 -0.12 -1 0.08 -1 -1.8 c-0.48 -1.96 -0.16 0.32 -1.52 -4 c0.04 0 0.04 -0.04 0.04 -0.08 c0 -0.2 -0.48 -0.64 -0.48 -1.08 l0 0.04 c-0.08 0 -0.2 -1.08 -0.88 -2.4 c0.04 -0.24 -0.56 -0.96 -0.6 -1.64 c0 0 0.04 -0.04 0.04 -0.08 c0 -0.24 -0.6 -1.08 -0.6 -1.56 c-0.04 0 -0.24 -1.04 -0.56 -1.2 c-0.4 0 -0.32 0.04 -0.4 0.24 c0.08 0.16 -0.56 0.72 -0.72 1.84 c0 -0.04 0 -0.04 -0.04 -0.04 s-0.04 0.84 -0.6 1.8 c0 0.16 0.04 0.24 0.04 0.28 c0 0.32 -0.36 -0.32 -1.08 2.8 c0.04 0 0.04 0.04 0.04 0.08 c0 0.56 -0.92 1.52 -0.92 2.64 c0.44 0 -0.56 -0.04 -0.56 1.08 s-0.48 0.76 -0.48 1.92 c0 -0.04 -0.04 -0.08 -0.04 -0.08 c-0.04 0 0.04 1.36 -1.12 1.36 c-0.08 0 -0.2 -0.04 -0.24 -0.12 c-1.04 -0.84 0.04 0.04 -1.24 -2.64 c0.04 0 0.08 -0.04 0.08 -0.04 c0 -0.2 -0.64 -0.76 -0.64 -1.56 c0 -0.12 -0.4 -0.52 -0.4 -1.08 c-0.12 0.32 0.08 -0.32 -0.48 -1.04 z M15.84 40.52 c-0.08 0 -0.08 0.04 -0.12 0.08 c-0.04 -0.04 0.04 0.08 0.12 -0.08 z M26.88 40.6 c0 -0.04 -0.04 -0.04 -0.08 -0.04 s-0.08 0 -0.08 0.04 s0.04 0.08 0.08 0.08 s0.08 -0.04 0.08 -0.08 z M26.96 40.28 c0 0.2 0 0.12 0.08 0.2 l0.16 -0.08 c-0.12 -0.04 -0.2 -0.04 -0.24 -0.16 l0 0.04 z M15.92 40.08 c-0.04 0 -0.08 0.04 -0.08 0.12 c0 0.04 0.04 0.08 0.08 0.08 c0 0 0.04 -0.04 0.04 -0.08 c0 -0.08 -0.04 -0.12 -0.04 -0.12 z M27.32 39.92 l0 0.36 l0.32 -0.32 z M27.52 39.12 l0 0.08 c0.04 0 0.08 -0.04 0.12 -0.08 l-0.12 0 z M28.04 38.48 l0 0.12 l0.04 -0.12 l-0.04 0 z M13.08 35.519999999999996 c-0.04 0 -0.08 0.04 -0.08 0.08 s0.04 0.08 0.08 0.08 s0.04 -0.04 0.04 -0.08 s0 -0.08 -0.04 -0.08 z M12.92 35.12 l0 0.08 c0.04 0 0.04 0 0.04 -0.04 c0 0 0 -0.04 -0.04 -0.04 z M13.08 34.6 c-0.2 0.08 -0.16 0.2 -0.16 0.44 c0.12 -0.16 0.16 -0.24 0.16 -0.44 z M12.92 34.04 l0 0.08 c0.08 0 0.12 0.04 0.16 -0.08 l-0.16 0 z M12 32.480000000000004 l0 0.44 l0.04 -0.12 c0 -0.32 0 -0.24 -0.04 -0.32 z M30.08 32.36 l0.08 0.08 l0 -0.08 l-0.08 0 z M10.32 11.920000000000002 c0 0.28 -0.04 0.24 -0.04 0.32 c0 0.2 0.44 0.76 0.44 1.12 c-0.04 0 -0.04 0 -0.04 0.04 c0 0.2 0.68 1.24 0.68 1.96 c0 0 -0.04 0.04 -0.04 0.08 c0 0.24 0.68 1.12 0.68 1.6 c0.04 0.32 0.08 0.64 0.92 2.48 c0 0.32 0.48 0.68 0.48 1.04 c0.12 1.96 1.04 2.44 1.04 3.04 c-0.04 0 -0.04 0.04 -0.04 0.08 c0 0.24 0.68 0.92 0.68 1.56 c0.16 0.12 -0.16 0.44 0.6 1.56 c-0.08 0.04 -0.08 0.08 -0.08 0.12 c0 0.28 0.64 0.68 0.64 1.32 c0 0.88 0.64 0.92 0.64 1.72 c0 0.28 0 0.72 0.6 1.48 c0.04 0 0.24 -0.08 0.32 -0.08 c0.56 -2.84 1.28 -2.44 1.28 -3.6 l-0.08 0.16 c0 -0.08 0.2 -0.64 1.16 -3.24 c0 -1.04 -0.36 -1.36 -0.52 -1.92 l0.04 0.04 c0.2 0.08 -0.88 -1.28 -0.88 -2.04 c0 -0.64 -0.56 -1.16 -0.56 -1.64 c0 -1.48 -1.04 -1.6 -1.04 -2.8 c0.04 -0.08 0.04 -0.16 0.04 -0.2 c0 -0.72 -1.4 -1.44 -1.4 -3.48 c0 -1.2 -1.08 -1.28 -2.28 -1.28 c-0.08 0 -0.56 0.08 -0.64 0.08 c-0.72 0 -1.92 -0.24 -1.96 -0.24 c-0.68 0.28 -0.64 0.48 -0.64 0.72 z M10.76 29.32 c0 0 -0.04 0.04 -0.04 0.08 s0.04 0.08 0.04 0.08 s0.04 -0.04 0.04 -0.08 s-0.04 -0.08 -0.04 -0.08 z M10.64 28.880000000000003 c-0.04 0 -0.08 0.04 -0.08 0.08 c0 0 0.04 0.04 0.08 0.04 s0.04 -0.04 0.04 -0.04 c0 -0.04 0 -0.08 -0.04 -0.08 z M10.56 28.759999999999998 c-0.04 0 -0.08 0.04 -0.08 0.08 c0 0 0.04 0.04 0.08 0.04 s0.04 -0.04 0.04 -0.04 c0 -0.04 0 -0.08 -0.04 -0.08 z M9.28 25.6 c0 0.08 0.04 0.12 0.12 0.2 c0 0 0 -0.12 -0.12 -0.2 z M31.88 25.560000000000002 c-0.04 0 -0.04 0.04 -0.04 0.04 s0 0.04 0.04 0.04 s0.04 -0.04 0.04 -0.04 s0 -0.04 -0.04 -0.04 z M32.52 25.08 c-0.04 0.04 0.08 0.32 0.08 0.4 l0.08 -0.08 c0 -0.04 -0.04 -0.24 -0.08 -0.32 l-0.08 0 z M8.68 24.08 c0 -0.04 0 -0.04 -0.04 -0.04 l0 0.08 c0.04 0 0.04 0 0.04 -0.04 z M7.8 21.48 c-0.04 0 -0.04 0.04 -0.04 0.08 s0 0.08 0.04 0.08 s0.04 -0.04 0.04 -0.08 s0 -0.08 -0.04 -0.08 z M34.08 20.96 l0 0.04 l0.08 -0.04 l-0.08 0 z M34 20.08 c-0.04 0 -0.04 0.04 -0.04 0.08 c0 0 0 0.04 0.04 0.04 s0.04 -0.04 0.04 -0.04 c0 -0.04 0 -0.08 -0.04 -0.08 z M6.96 19.36 c0 0.2 0.12 0.16 0.2 0.24 c0 -0.12 -0.16 -0.24 -0.2 -0.24 l0 0 z M23.96 19.52 c0 0 -0.04 -0.04 -0.08 -0.04 l-0.04 0.04 c0 0.04 0.04 0.08 0.04 0.08 c0.04 0 0.08 -0.04 0.08 -0.08 z M34.56 19.48 c-0.04 0 -0.04 0 -0.04 0.04 l0.08 0 c0 -0.04 0 -0.04 -0.04 -0.04 z M21.92 12 c1.24 3.28 0.76 2.68 1.52 4.24 l0.48 0 c0 -0.04 0.36 -0.52 0.36 -0.88 c-0.04 -0.04 -0.04 -0.08 -0.04 -0.08 c0 -0.2 0.44 -0.28 0.44 -1.16 c0 -0.16 0.68 -1.96 0.68 -2.2 c0 -0.32 -0.24 -0.64 -2.2 -0.64 c-0.6 0 -1.24 0.12 -1.24 0.72 z M5.56 15.04 c0 0.12 0 0.6 0.04 0.64 l0.08 0 c0.04 -0.08 0.2 -0.24 0.2 -0.52 c0 -0.12 -0.2 -0.12 -0.32 -0.12 z M35.96 15.52 l-0.08 0 c0 0.04 0 0.08 0.04 0.08 c0 0 0.04 -0.04 0.04 -0.08 z M35.52 15.52 c0 -0.04 -0.04 -0.04 -0.08 -0.04 s-0.08 0 -0.08 0.04 l0.16 0 z M35.88 14.84 c-0.08 0.24 -0.28 0.36 -0.28 0.68 l0.2 0 c0.04 -0.36 0.08 -0.4 0.08 -0.68 z M36.28 14.719999999999999 c0 -0.04 -0.04 -0.04 -0.04 -0.04 c-0.04 0 -0.04 0 -0.04 0.04 s0 0.08 0.04 0.08 c0 0 0.04 -0.04 0.04 -0.08 z M25.52 14.120000000000001 c0 -0.04 -0.04 -0.04 -0.04 -0.04 c-0.04 0 -0.04 0 -0.04 0.04 s0 0.08 0.04 0.08 c0 0 0.04 -0.04 0.04 -0.08 z M29.56 11.280000000000001 l-0.12 -0.04 z M39.68 11.239999999999998 c0.08 0.08 0.44 0.04 0.68 0.04 l0.08 -0.04 c-0.08 -0.04 -0.16 -0.04 -0.24 -0.04 c-0.24 0 -0.36 0.04 -0.52 0.04 z M40.76 11.04 c0 0 0.12 0.24 0.24 0.24 c0.2 -0.16 0.12 -0.28 0.32 -0.48 c0 -0.44 -0.36 -0.28 -0.6 -0.32 c0 0.08 0.16 0.24 0.28 0.32 c0 0.04 -0.12 0.16 -0.24 0.24 z M13.8 11.120000000000001 c-0.04 0 -0.08 0.04 -0.08 0.08 c0 0 0.04 0.04 0.08 0.04 l0.04 -0.04 c0 -0.04 -0.04 -0.08 -0.04 -0.08 z M24.04 11.120000000000001 c-0.04 0 -0.08 0.04 -0.08 0.08 c0 0 0.04 0.04 0.08 0.04 s0.04 -0.04 0.04 -0.04 c0 -0.04 0 -0.08 -0.04 -0.08 z M24.16 11.120000000000001 c-0.04 0 -0.08 0.04 -0.08 0.08 c0 0 0.04 0.04 0.08 0.04 l0.04 -0.04 c0 -0.04 -0.04 -0.08 -0.04 -0.08 z M28.48 11.120000000000001 c-0.04 0 -0.08 0.04 -0.08 0.08 c0 0 0.04 0.04 0.08 0.04 l0.04 -0.04 c0 -0.04 -0.04 -0.08 -0.04 -0.08 z M32.44 10.52 c0.12 0.2 0.2 0.44 0.32 0.52 c0.2 -0.16 0.24 0 0.24 -0.24 c-0.04 -0.16 -0.16 -0.28 -0.56 -0.28 z M5.8 10.84 c-0.04 0 -0.08 0.04 -0.08 0.04 c0 0.04 0.04 0.04 0.08 0.04 s0.04 0 0.04 -0.04 c0 0 0 -0.04 -0.04 -0.04 z M40.08 10.8 l0 0.12 l0.04 0 c0 -0.04 0 -0.08 -0.04 -0.12 z M1.08 10.600000000000001 l0 0.04 l0.08 0.28 z M29.76 10.64 c0 0 0 -0.04 -0.04 -0.04 l0 0.12 c0.04 0 0.04 -0.04 0.04 -0.08 z M10.96 10.52 c-0.04 0 -0.08 0.04 -0.08 0.08 c0 0 0.04 0.04 0.08 0.04 s0.04 -0.04 0.04 -0.04 c0 -0.04 0 -0.08 -0.04 -0.08 z M29.56 10.48 l0 0.04 l0.08 0 z M35.8 10.52 l-0.04 0 l0.04 0 z M40.2 10.48 l0 0.04 l0.12 0 z M47.884 39.44 l0 -0.2 l0.48 -0.48 l1.96 0 l0.16 0.08 l0.92 0.08 c0.16 0.08 0.36 -0.52 0.48 -0.52 l0 -4.84 c0 -0.04 -0.08 -0.52 -0.08 -0.56 c0 0 0.08 -0.96 0.08 -1.16 c0.08 -0.12 -0.12 0.16 -0.12 -0.64 c0 -0.08 0.12 -0.16 0.12 -0.32 c0 -0.28 -0.08 -0.44 -0.08 -0.64 c0 -0.08 0.08 -0.36 0.08 -0.52 l0 -2.52 c0 -0.36 -0.12 -1 -0.12 -1.48 l0.04 -3.44 c-0.04 -0.16 -0.04 -1.2 -0.04 -1.4 c0 -0.12 0.04 -1.04 0.04 -1.16 c0 -0.04 -0.04 -2.08 -0.04 -2.32 c0 -2.48 0.04 -2.92 0.04 -4 c0 -0.48 0 -1.52 -0.04 -1.84 l-0.24 -0.28 s-0.8 -0.04 -1.12 -0.04 c-0.52 0 -0.92 0.12 -1.4 0.12 c-0.44 -0.08 -0.88 0.24 -1.28 -0.68 c0 -0.36 0.08 -0.8 0.44 -0.88 c8.16 0 9 0.08 12.24 0.08 c7.76 0 7.32 -0.08 10.56 -0.08 c0.4 0 0.84 7.32 0.84 7.68 c0 0.04 0.04 0.04 0.04 0.08 c0 0.48 -0.72 0.84 -0.96 0.84 c-0.52 0 -0.8 -0.56 -0.96 -1.2 c0.16 0 -1.72 -3.08 -1.64 -2.92 c-0.52 -0.52 -0.56 -0.6 -0.88 -1 c0 -0.36 -1.72 -1.16 -1.92 -1.44 c0 0.04 -0.04 0.04 -0.04 0.04 c-0.12 0 -0.24 -0.48 -1.08 -0.48 c-1.12 0 -1.04 -0.16 -2.76 -0.16 l0 -0.08 l-1.24 0 l-0.08 0.08 l-0.52 0 l0.28 -0.08 c-0.92 0 -1.32 -0.12 -1.56 -0.12 c-0.36 0 -0.8 0.2 -0.8 1.36 c0 2.24 0.08 3.44 0.08 4 c0 0.6 -0.08 2.36 -0.08 2.6 c0 0.68 0.16 1.24 0.16 1.72 c-0.08 0 -0.16 0.28 -0.16 0.4 s0.16 0.88 0.16 1.24 c0 0.08 -0.08 0.2 -0.08 0.24 c0 0.12 -0.12 1.64 0.28 1.64 c0.92 0 1.6 -0.24 2.32 -0.24 l0 0.04 c0.12 0 0.48 -0.6 0.76 -0.6 c0.48 0 0.56 -0.16 1.08 -0.68 l0 0.04 c-0.04 0 0.68 -1.44 1.08 -1.92 c0.68 -0.32 -0.24 -2 1.76 -2 l0.12 0.08 c0 0.36 0.2 0.48 0.2 1.6 c-0.04 0.32 -0.08 1.36 -0.08 1.28 c0 0.44 0.08 1.12 0.08 1.68 c0 0.48 0 0.48 -0.08 0.72 c0 0.4 0.08 0.92 0.08 1.04 c0 0.52 -0.08 0.52 -0.08 0.92 c0 0.32 0.08 2.48 0.08 2.76 c0 0.16 -0.08 0.32 -0.08 0.56 l0 1.48 c0.04 0.04 -0.32 0.32 -0.52 0.32 c-1.28 0 -0.2 -0.24 -1.64 -2.84 c-1.12 -1.96 -1.48 -1.88 -2.12 -2.44 c0.04 0 -1.16 -0.4 -1.44 -0.4 l-0.12 -0.2 l-1.28 -0.04 c-0.6 0.32 -0.52 2 -0.52 1.36 c0 0.16 0.12 0.56 0.12 1.16 c0 0.28 -0.04 0.76 -0.12 1.2 c0 0.04 0.12 0.4 0.12 0.64 c0 0.4 -0.08 0.36 -0.08 0.52 c0 0.28 0.08 0.44 0.08 0.56 c-0.12 1.56 -0.16 4.36 -0.16 4.84 c0 2.52 -0.04 2.72 0.56 3.32 l1.72 0 c0.16 -0.04 0.36 -0.16 0.52 -0.16 c0.04 0 2.4 0.08 2.72 0.08 s0.04 -0.2 0.88 -0.2 c1.52 -0.6 1.44 -0.08 2.72 -1.08 c-0.04 0 -0.04 -0.04 -0.04 -0.04 c0 -0.12 1 -0.56 1.52 -1.2 c-0.04 0 -0.04 -0.04 -0.04 -0.04 c0 -0.6 1.76 -1.04 1.76 -2.48 c0 -0.16 0.72 -1.08 0.72 -1.32 c1 -2.52 0.36 -2.4 1.64 -2.4 c0.04 0 0.48 0 0.48 0.52 c0 2.6 -0.4 5.8 -0.4 7.6 c0 0.28 0.04 0.56 0.04 0.84 c0 0.48 -0.16 0.88 -1.12 0.88 l-15.4 0 c-2.32 0 -3.16 0.08 -7.44 0.08 c-0.76 -0.24 -0.56 -0.56 -0.56 -0.64 z M48.284 39.6 l0 -0.04 l0 0.12 c0 0.12 0.04 0.28 0.4 0.28 c0.08 0 0.2 0 0.32 -0.04 l0 -0.08 l-0.32 -0.36 c-0.04 0.08 -0.08 0.16 -0.16 0.2 c-0.04 0 -0.16 -0.04 -0.24 -0.12 l0 0.04 z M62.484 39.76 l0.04 0.08 c0.04 -0.04 0.04 -0.04 0.04 -0.16 z M60.924 39.68 c-0.12 0 -0.16 0 -0.2 0.08 l0.2 0 l0 -0.08 z M49.684 39.24 c0.08 0 0.24 0.08 0.28 0.08 c0.36 0 0.24 0 0.36 -0.08 c-0.08 0 -0.36 -0.08 -0.4 -0.08 c-0.16 0 -0.16 0 -0.24 0.08 z M71.644 39.24 c0.04 0.12 0.16 0.08 0.24 0.08 c-0.04 -0.08 -0.12 -0.08 -0.24 -0.08 z M52.763999999999996 39.24 c0 -0.04 -0.04 -0.04 -0.08 -0.04 s-0.08 0 -0.08 0.04 s0.04 0.08 0.08 0.08 s0.08 -0.04 0.08 -0.08 z M48.524 39.12 l0 0.04 l0.4 0 c-0.08 -0.04 -0.32 -0.04 -0.4 -0.04 z M52.204 33.8 l-0.04 -0.04 c-0.04 0 -0.04 0.04 -0.04 0.04 c0 0.04 0 0.08 0.04 0.08 c0 0 0.04 -0.04 0.04 -0.08 z M52.124 32.08 l0 0.16 c0.04 0 0.04 -0.04 0.04 -0.08 s0 -0.08 -0.04 -0.08 z M52.204 31.84 c0.04 0.08 0.12 0.08 0.24 0.08 c0 -0.08 0.04 -0.32 -0.08 -0.4 c0 0.08 -0.16 0.2 -0.16 0.32 z M52.444 31.08 c0 0.04 0 0.08 0.04 0.12 l0.04 -0.12 l-0.08 0 z M72.444 31.08 c-0.04 0 -0.08 0.04 -0.08 0.08 c0 0 0.04 0.04 0.08 0.04 s0.04 -0.04 0.04 -0.04 c0 -0.04 0 -0.08 -0.04 -0.08 z M72.644 31 c-0.04 0 -0.04 0.04 -0.04 0.08 c0 0 0 0.04 0.04 0.04 l0 -0.12 z M52.204 24.96 c-0.04 0 -0.08 0.04 -0.08 0.08 c0 0 0.04 0.04 0.08 0.04 s0.04 -0.04 0.04 -0.04 c0 -0.04 0 -0.08 -0.04 -0.08 z M52.484 24.96 c0 -0.04 0 -0.04 -0.04 -0.04 l0 0.08 c0.04 0 0.04 0 0.04 -0.04 z M52.204 23.2 l-0.04 -0.04 c-0.04 0 -0.04 0.04 -0.04 0.04 c0 0.04 0 0.08 0.04 0.08 c0 0 0.04 -0.04 0.04 -0.08 z M64.964 19.84 c0 -0.04 -0.04 -0.04 -0.08 -0.04 c0 0 -0.04 0 -0.04 0.04 s0.04 0.08 0.04 0.08 c0.04 0 0.08 -0.04 0.08 -0.08 z M70.644 17.92 c-0.04 0 -0.08 0.04 -0.08 0.08 c0 0 0.04 0.04 0.08 0.04 s0.04 -0.04 0.04 -0.04 c0 -0.04 0 -0.08 -0.04 -0.08 z M56.724000000000004 15.920000000000002 c-0.04 0.04 -0.04 0.12 -0.04 0.16 l0.44 0 c-0.04 -0.08 -0.2 -0.16 -0.4 -0.16 z M52.124 14.36 l0 0.16 c0.04 0 0.04 -0.04 0.04 -0.08 s0 -0.08 -0.04 -0.08 z M52.124 12.32 l0 0.16 c0.04 0 0.04 -0.04 0.04 -0.08 s0 -0.08 -0.04 -0.08 z M71.044 10.84 l0 0.4 l0.04 -0.2 c0 -0.08 0 -0.12 -0.04 -0.2 z M50.724 11.079999999999998 c-0.04 0 -0.04 0.04 -0.04 0.08 s0 0.08 0.04 0.08 s0.04 -0.04 0.04 -0.08 s0 -0.08 -0.04 -0.08 z M54.084 11.16 c0 -0.04 -0.04 -0.04 -0.04 -0.04 c-0.04 0 -0.04 0 -0.04 0.04 s0 0.08 0.04 0.08 c0 0 0.04 -0.04 0.04 -0.08 z M49.604 10.760000000000002 c-0.36 0 -0.16 0.28 -0.28 0.32 c0.24 0 0.28 -0.04 0.28 -0.12 c0 -0.04 -0.04 -0.08 -0.04 -0.12 s0.04 -0.04 0.04 -0.08 z M50.564 10.96 l0.12 0.08 l0.04 -0.08 l-0.08 -0.04 z M48.804 10.84 c-0.04 0 -0.04 0.04 -0.04 0.08 c0 0 0 0.04 0.04 0.04 s0.04 -0.04 0.04 -0.04 c0 -0.04 0 -0.08 -0.04 -0.08 z M49.204 10.68 l-0.28 0.08 l0.28 0 l0 -0.08 z M52.763999999999996 10.68 c-0.04 0 -0.08 0.04 -0.08 0.04 c0 0.04 0.04 0.04 0.08 0.04 c0 0 0.04 0 0.04 -0.04 z M56.804 10.68 l0 0.08 l0.04 0 z M49.403999999999996 10.68 l-0.08 0 c0 0.04 0 0.08 0.04 0.08 c0 0 0.04 -0.04 0.04 -0.08 z M50.324 10.64 c-0.08 0 -0.08 0.08 -0.08 0.08 c0.04 0 0.04 -0.04 0.08 -0.08 z M52.044 10.68 l-0.08 0 c0 0.04 0 0.08 0.04 0.08 c0 0 0.04 -0.04 0.04 -0.08 z M58.564 10.64 c-0.08 0 -0.16 0.04 -0.24 0.04 l0.28 0 z M48.204 10.64 c0 0 0 -0.04 -0.04 -0.04 l0 0.08 c0.04 0 0.04 0 0.04 -0.04 z M60.284 10.52 c0 0.16 0.04 0.08 0.08 0.12 c0 0 0.04 0 0.08 -0.04 l-0.08 -0.16 z M70.884 10.120000000000001 l0 0.48 l0.08 0 c0 -0.12 0.04 -0.48 -0.08 -0.48 z M49.844 10.2 c-0.04 0 -0.08 0.04 -0.08 0.04 c0 0.04 0.04 0.04 0.08 0.04 s0.04 0 0.04 -0.04 c0 0 0 -0.04 -0.04 -0.04 z M48.524 10.2 l-0.04 -0.08 z M49.004 10.04 c-0.08 0.04 -0.12 0.08 -0.12 0.12 l0.04 0.04 l0.08 0 l0 -0.16 z M80.168 38.88 l0.64 0 l-0.08 0.08 c0.68 0.08 1.2 0.12 2.2 0.12 c0.52 -1.64 0.24 -4.4 0.36 -4.44 c0 -1.4 -0.12 -2.8 -0.12 -4.16 c0 -0.08 0.08 -0.16 0.08 -0.52 c0 -0.16 -0.04 -0.72 -0.08 -0.56 c0 -0.08 0.08 -0.28 0.08 -0.48 c0 -0.52 -0.04 -2.56 -0.04 -8.72 c0 -0.2 0.04 -0.28 0.04 -0.56 c0 -0.44 -0.04 -1.2 -0.04 -1.28 c0 -2 0.08 -3.6 0.08 -4.96 c0 -1.12 -0.08 -1.92 -0.44 -2.04 c-1.96 0 -2.4 0.08 -2.76 0.08 c-0.08 0 -0.88 0.16 -0.88 -0.56 c0 -0.88 0.24 -0.64 0.44 -0.92 l10.24 0 c0.08 0 0.16 -0.08 0.24 -0.08 c3.92 0 8.92 0.52 9.08 1.08 c0 -0.04 0.04 -0.04 0.04 -0.04 c0.12 0 0.28 0.52 1.2 0.52 c0.04 0 0.04 -0.04 0.08 -0.04 c0.12 0 0.12 0.4 0.88 0.68 c0 -0.04 0.04 -0.04 0.04 -0.04 c0.16 0 0.44 0.84 0.68 0.84 c-0.08 0.08 1.16 0.48 1.16 1.4 c0.08 1 0.72 0.52 0.72 2.44 c0 1.12 -0.12 1.72 -0.12 2.04 c0 0.08 0 0.12 0.04 0.16 c-0.24 0.2 -0.24 1.04 -0.48 1.08 c0 0.84 -1.12 1.32 -1.32 1.88 c0 0.48 -0.64 0.4 -1.56 1.32 c-0.04 -0.04 -0.04 -0.04 -0.08 -0.04 c-0.2 0 -0.72 0.44 -1.28 0.44 c-0.8 0.2 -0.12 0.56 -1.32 0.56 c0 1.32 2.96 0.52 2.96 1.36 c0.04 0.04 0.6 0.44 1.12 0.44 c0.2 0.48 0.84 0.44 1.32 0.88 c0.32 0.2 0.68 1 1.08 1.4 c0.32 -0.08 0.36 1.08 0.6 1.08 l-0.04 -0.04 c0 0.4 0.6 1.16 0.6 2 c0 4.48 -0.76 2.76 -0.76 4.32 c-0.32 0 -0.36 0.6 -0.6 0.84 c-0.8 0.36 0.16 0.52 -3.32 2.32 c0 0.08 -0.64 0.68 -2.28 0.68 c-0.24 0 -0.56 0.32 -1 0.32 c-8.96 0.32 -8.04 0.44 -16.6 0.44 c-0.92 0 -1.68 -0.04 -1.64 -0.16 l0 -0.76 c0.36 -0.12 0.8 -0.32 0.84 -0.4 z M83.248 39.76 c-0.04 0 -0.04 0.04 -0.04 0.04 c0 0.04 0 0.04 0.04 0.04 c0 0 0.04 0 0.04 -0.04 z M91.12800000000001 39.76 c-0.04 0 -0.08 0.04 -0.08 0.08 s0.04 0.08 0.08 0.08 l0 -0.16 z M95.608 39.76 l0.08 0.08 l0 -0.08 l-0.08 0 z M83.608 39.52 c0 0.24 0.28 0.24 0.4 0.24 c-0.08 -0.04 -0.12 -0.28 -0.16 -0.32 c-0.16 0 -0.16 0 -0.24 0.08 z M95.808 39.68 c0 0 -0.04 0.04 -0.04 0.08 l0.08 0 c0 -0.04 -0.04 -0.08 -0.04 -0.08 z M80.92800000000001 39.28 c0 0.2 0.04 0.24 0.08 0.24 s0.12 0 0.12 -0.04 c0 -0.12 -0.12 -0.12 -0.2 -0.2 z M80.48800000000001 39.36 c0.04 0.08 0.16 0.04 0.24 0.04 c-0.08 -0.04 -0.16 -0.04 -0.24 -0.04 z M83.248 39.36 c-0.04 0 -0.04 0.04 -0.04 0.04 l0.08 0 z M92.08800000000001 39.36 c0.04 0.04 0.04 0.08 0.08 0.08 l0.04 -0.04 l0 -0.12 z M97.328 39.36 c-0.04 0 -0.04 0.04 -0.04 0.04 l0.08 0 c0 0.04 0 -0.04 -0.04 -0.04 z M81.328 39.36 c0 -0.04 -0.04 -0.04 -0.04 -0.04 c-0.04 0 -0.04 0 -0.04 0.04 s0 0.04 0.04 0.04 c0 0 0.04 0 0.04 -0.04 z M81.56800000000001 39.28 c-0.04 0 -0.08 0.04 -0.08 0.08 s0.04 0.04 0.08 0.04 s0.04 0 0.04 -0.04 s0 -0.08 -0.04 -0.08 z M79.92800000000001 39.2 c-0.04 0 -0.08 0.04 -0.08 0.08 s0.04 0.08 0.08 0.08 c0 0 0.04 -0.04 0.04 -0.08 s-0.04 -0.08 -0.04 -0.08 z M83.44800000000001 39.28 c0 -0.04 -0.04 -0.04 -0.04 -0.04 c-0.04 0 -0.04 0 -0.04 0.04 s0 0.08 0.04 0.08 c0 0 0.04 -0.04 0.04 -0.08 z M91.84800000000001 38.88 c-0.04 0.08 0.04 0.12 0.16 0.16 c0.2 0 0.56 0.04 0.56 -0.24 l2.48 0 l-0.08 0 c0 -0.04 0.84 0 2.12 -0.56 c1 -0.88 0.96 -0.84 1.24 -1.4 l-0.08 0 c0 -0.04 0.44 -0.32 0.44 -1 c0 -1.96 0.52 -2.4 0.52 -3.84 c0 -2.84 -0.48 -2.6 -0.48 -3.4 c0 -0.08 0.04 -0.16 0.04 -0.24 c0 -0.16 -0.04 -0.4 -0.32 -0.68 c-0.04 0 -0.04 0.04 -0.08 0.04 c-0.24 0 -0.08 -1.12 -0.76 -1.12 c-0.08 -0.08 -0.08 -0.32 -0.84 -0.72 l0 0.04 c-0.16 0 -1.36 -0.76 -2.32 -0.76 c-1.12 0 -2.56 -0.08 -4.96 -0.08 c-0.16 0.08 -0.2 0.16 -0.2 0.2 c0 0 0.04 0 0.04 0.04 l-0.04 0 l-0.04 -0.04 c-0.08 0 -0.2 0.36 -0.2 3.16 c0 0.88 0.04 3.24 0.04 5.8 c0 0.68 -0.04 1.48 -0.04 2.2 c0 1.08 0.08 2.04 0.52 2.36 l0.48 0 l0.08 0.16 l0.84 0 l0.08 -0.08 l0.8 0 z M99.768 35.68 c-0.04 0 -0.08 0.04 -0.08 0.08 c0 0 0.04 0.04 0.08 0.04 l0 -0.12 z M89.08800000000001 23.76 c0 0.16 0.24 0.28 0.24 0.32 l3.16 0 c0.2 -0.16 1.24 0.08 1.56 -0.4 c1.48 0 2 -0.4 2.28 -0.76 l0 0.04 c0.08 0 0.48 -0.6 0.72 -0.56 c-0.04 -0.04 -0.08 -0.12 -0.08 -0.16 c0 -0.28 0.76 -0.4 0.76 -1.4 c0.12 -2.44 0.32 0.84 0.32 -4.76 c0 -0.4 0 -0.68 -0.08 -1.08 c0 0 -0.08 -1.4 -0.64 -1.88 l0 0.04 c-0.04 0 -0.28 -0.88 -1.08 -1.12 c-0.08 0 -0.64 -0.68 -2.04 -0.68 l-4.96 0 c-0.24 0.08 -0.32 1.12 -0.32 1.44 c0.04 0.08 0.12 0.72 0.12 1.44 c0 0.08 0 0.16 -0.08 0.24 l0 2.84 c0 0.44 0.08 0.64 0.08 1.52 c0 0.6 0 1.24 -0.08 1.24 c0 1.32 0.12 2.56 0.12 3.68 z M83.56800000000001 21.72 c-0.08 0 -0.08 0.04 -0.12 0.04 c0 0 -0.04 0 0.12 -0.04 z M102.048 21.64 c0 -0.04 -0.04 -0.04 -0.04 -0.04 c-0.04 0 -0.04 0 -0.04 0.04 s0 0.08 0.04 0.08 c0 0 0.04 -0.04 0.04 -0.08 z M81.56800000000001 11 c0 0.12 0 0.12 0.08 0.2 c0.16 0 0.2 0 0.32 -0.08 l-0.2 -0.24 c-0.16 0 -0.24 0.04 -0.24 0.08 s0.04 0.04 0.04 0.04 z M79.64800000000001 10.440000000000001 c-0.28 0 -0.2 0.2 -0.2 0.44 c0.16 -0.2 0.2 -0.16 0.2 -0.44 z M81.48800000000001 10.879999999999999 c0 -0.04 0 -0.04 -0.04 -0.04 l0 0.12 c0.04 0 0.04 -0.04 0.04 -0.08 z M80.328 10.600000000000001 c0 0.08 0.16 0.2 0.24 0.2 c0.04 0 0.24 0 0.32 -0.08 l-0.04 0 s0.04 0 0.04 -0.04 s-0.04 -0.12 -0.16 -0.12 c-0.08 0 -0.2 0.04 -0.4 0.04 z M81.968 10.559999999999999 c-0.12 0 -0.24 0.04 -0.24 0.16 c0.04 -0.04 0.2 -0.12 0.24 -0.16 z M81.328 10.559999999999999 c-0.12 0 -0.2 0 -0.2 0.08 c0 0.04 0 0.04 0.04 0.04 c0.12 0 0.16 -0.08 0.16 -0.12 z M94.64800000000001 10.559999999999999 l0 0.04 l0.12 -0.04 l-0.12 0 z"
		></path>
	</g>
</svg>
