<svg width="37" height="40" fill="none" xmlns="http://www.w3.org/2000/svg"><path d="M.834 21.348l4.18-3.494a2.219 2.219 0 013.18.337 2.37 2.37 0 01-.328 3.27l-2.023 1.69L20.53 35.873c.968.81 1.115 2.273.328 3.269a2.231 2.231 0 01-1.755.858c-.501 0-1.006-.17-1.425-.52L.834 24.953A2.35 2.35 0 010 23.151c0-.7.307-1.361.834-1.803z" fill="#fff"/><path d="M19.395 0c1.2.01 2.166 1.018 2.156 2.252l-.187 35.531c-.01 1.234-.99 2.227-2.19 2.217a2.113 2.113 0 01-.855-.187 2.24 2.24 0 01-1.301-2.065l.187-35.531c.01-1.234.99-2.227 2.19-2.217z" fill="#fff"/><path d="M28.934 24.442l1.544-1.29-5.498-4.597c-.969-.81-1.115-2.273-.328-3.269a2.218 2.218 0 013.18-.337l7.655 6.4a2.35 2.35 0 01.834 1.802c0 .7-.306 1.362-.834 1.803l-3.7 3.094c-.42.35-.924.52-1.425.52a2.232 2.232 0 01-1.755-.857 2.37 2.37 0 01.328-3.27z" fill="#7B4AE2"/></svg>