<svg width="64" height="64" viewBox="0 0 64 64" fill="none" xmlns="http://www.w3.org/2000/svg">
<path d="M52.6208 21.956C51.9569 21.7274 51.269 21.5112 50.5606 21.3067C50.677 20.8316 50.7839 20.3626 50.8789 19.9016C52.4385 12.3313 51.4188 6.23262 47.9368 4.22468C44.5981 2.29934 39.1378 4.30682 33.6232 9.10601C33.0929 9.56749 32.5612 10.0561 32.0296 10.5682C31.6754 10.2294 31.3218 9.90196 30.9691 9.58879C25.1897 4.45719 19.3967 2.29467 15.9181 4.30841C12.5826 6.23934 11.5948 11.9727 12.9986 19.1471C13.1342 19.84 13.2927 20.5477 13.4718 21.2672C12.652 21.5 11.8605 21.7481 11.1031 22.012C4.32733 24.3744 0 28.0767 0 31.9171C0 35.8834 4.64539 39.8617 11.7029 42.2739C12.2599 42.4643 12.8378 42.6443 13.4333 42.8151C13.24 43.5933 13.0719 44.3559 12.9307 45.0997C11.5922 52.1496 12.6375 57.7474 15.9642 59.6662C19.4003 61.6477 25.1671 59.6109 30.7825 54.7024C31.2264 54.3144 31.6718 53.9029 32.118 53.4716C32.6964 54.0285 33.2738 54.5556 33.8482 55.05C39.2874 59.7306 44.6595 61.6207 47.9831 59.6966C51.4158 57.7094 52.5314 51.6959 51.083 44.3796C50.9724 43.8208 50.8437 43.25 50.6991 42.669C51.1041 42.5492 51.5017 42.4256 51.8894 42.2971C59.2263 39.8662 64 35.9364 64 31.9171C64 28.0628 59.5331 24.3355 52.6208 21.956ZM51.0295 39.702C50.6796 39.8178 50.3205 39.9298 49.9546 40.0384C49.1446 37.4742 48.0514 34.7475 46.7137 31.9304C47.9903 29.1804 49.0412 26.4886 49.8285 23.941C50.4832 24.1305 51.1186 24.3303 51.7309 24.5411C57.6533 26.5799 61.2659 29.5944 61.2659 31.9171C61.2659 34.3912 57.3644 37.6029 51.0295 39.702ZM48.4009 44.9106C49.0414 48.1458 49.1329 51.0707 48.7086 53.3573C48.3275 55.412 47.5609 56.7818 46.6131 57.3305C44.5962 58.4979 40.2829 56.9804 35.6313 52.9775C35.098 52.5187 34.5609 52.0287 34.0221 51.5101C35.8254 49.5378 37.6277 47.245 39.3867 44.6986C42.4807 44.424 45.4037 43.9752 48.0545 43.3624C48.1851 43.889 48.301 44.4056 48.4009 44.9106ZM21.819 57.1287C19.8485 57.8247 18.279 57.8446 17.3303 57.2976C15.3115 56.1332 14.4723 51.6386 15.6171 45.6096C15.7482 44.9191 15.9043 44.2098 16.0841 43.4849C18.7059 44.0646 21.6075 44.4818 24.7088 44.7332C26.4797 47.2249 28.3341 49.5153 30.2028 51.5207C29.7945 51.9149 29.3878 52.2901 28.9834 52.6437C26.5003 54.8142 24.012 56.3542 21.819 57.1287ZM12.5872 39.6868C9.46645 38.6202 6.88926 37.2339 5.12272 35.7212C3.53537 34.3618 2.73395 33.0122 2.73395 31.9171C2.73395 29.5866 6.20836 26.6141 12.0031 24.5938C12.7062 24.3486 13.4422 24.1176 14.2061 23.9006C15.0069 26.5057 16.0575 29.2294 17.3253 31.9836C16.0411 34.7787 14.9756 37.5458 14.1669 40.1814C13.6223 40.0249 13.0948 39.8602 12.5872 39.6868ZM15.6818 18.622C14.479 12.4752 15.2778 7.8382 17.2879 6.67463C19.429 5.43508 24.1636 7.20242 29.1537 11.6333C29.4727 11.9165 29.7929 12.2129 30.1141 12.5196C28.2546 14.5163 26.4172 16.7894 24.662 19.2665C21.652 19.5454 18.7708 19.9936 16.1217 20.5937C15.9552 19.9238 15.8076 19.2655 15.6818 18.622ZM43.2885 25.4388C42.6552 24.345 42.0051 23.277 41.3423 22.2381C43.3843 22.4963 45.3407 22.839 47.178 23.2583C46.6264 25.0261 45.9389 26.8744 45.1296 28.7692C44.5491 27.6671 43.9351 26.5558 43.2885 25.4388ZM32.0305 14.4735C33.2916 15.8398 34.5545 17.3651 35.7967 19.0202C34.545 18.961 33.2777 18.9303 32 18.9303C30.7344 18.9303 29.4765 18.9604 28.2325 19.0185C29.4759 17.3788 30.7497 15.8555 32.0305 14.4735ZM20.7005 25.4577C20.0679 26.5547 19.4652 27.6599 18.8938 28.7672C18.0977 26.879 17.4165 25.0222 16.8601 23.2294C18.6862 22.8207 20.6334 22.4866 22.6624 22.2334C21.9903 23.2818 21.3348 24.3576 20.7005 25.4575V25.4577ZM22.7208 41.7958C20.6245 41.5619 18.648 41.245 16.8224 40.8476C17.3877 39.0228 18.0839 37.1264 18.8969 35.1975C19.4698 36.304 20.0748 37.4097 20.7113 38.509H20.7114C21.3597 39.6289 22.0314 40.726 22.7208 41.7958ZM32.1062 49.5533C30.8103 48.1552 29.5178 46.6086 28.2555 44.9451C29.4809 44.9932 30.7303 45.0178 32 45.0178C33.3045 45.0178 34.5941 44.9884 35.8633 44.9319C34.6171 46.6254 33.3587 48.1743 32.1062 49.5533ZM45.1557 35.0992C46.0111 37.0489 46.7323 38.9354 47.3048 40.7292C45.4492 41.1525 43.4457 41.4934 41.3348 41.7468C41.9991 40.694 42.655 39.6076 43.2994 38.4902C43.9514 37.3597 44.5704 36.2274 45.1557 35.0992ZM40.9311 37.1243C39.9307 38.8589 38.9036 40.5149 37.8609 42.078C35.9618 42.2138 33.9997 42.2837 32 42.2837C30.0084 42.2837 28.071 42.2218 26.2055 42.1007C25.1208 40.5172 24.0713 38.8563 23.0773 37.1392H23.0775C22.0861 35.4268 21.1736 33.6999 20.3468 31.9827C21.1734 30.2615 22.0835 28.5326 23.0692 26.8233L23.069 26.8236C24.0573 25.1097 25.0975 23.457 26.1722 21.8833C28.0756 21.7394 30.0274 21.6643 31.9999 21.6643H32C33.9814 21.6643 35.9357 21.74 37.8385 21.8851C38.8968 23.4473 39.9299 25.0947 40.9221 26.8088C41.9257 28.5422 42.8475 30.2595 43.6812 31.9438C42.85 33.6571 41.9302 35.3917 40.9311 37.1243ZM46.5712 6.59329C48.7143 7.8292 49.5478 12.8136 48.2012 19.3497C48.1153 19.7668 48.0186 20.1916 47.9136 20.6221C45.2584 20.0094 42.3751 19.5535 39.3563 19.2703C37.5978 16.766 35.7754 14.4894 33.9462 12.5183C34.438 12.0452 34.9291 11.5941 35.4181 11.1684C40.1431 7.05649 44.5591 5.43302 46.5712 6.59329ZM32 26.2021C35.1562 26.2021 37.715 28.7607 37.715 31.9171C37.715 35.0733 35.1562 37.632 32 37.632C28.8438 37.632 26.285 35.0733 26.285 31.9171C26.285 28.7607 28.8438 26.2021 32 26.2021Z" fill="#7B4AE2" fill-opacity="0.5"/>
</svg>
