<svg width="65" height="64" viewBox="0 0 65 64" fill="none" xmlns="http://www.w3.org/2000/svg">
<path fill-rule="evenodd" clip-rule="evenodd" d="M62.7941 29.149L34.8502 1.2072C33.2421 -0.402318 30.6319 -0.402318 29.0217 1.2072L23.2191 7.00974L30.5799 14.3705C32.2906 13.7926 34.2519 14.1802 35.6156 15.544C36.9857 16.9161 37.3705 18.8943 36.7785 20.6106L43.8725 27.7045C45.5887 27.1132 47.569 27.4959 48.9398 28.8688C50.8555 30.7838 50.8555 33.8877 48.9398 35.804C47.0234 37.7204 43.9195 37.7204 42.0024 35.804C40.5614 34.3617 40.2054 32.2451 40.935 30.4699L34.3193 23.8542L34.3186 41.2639C34.7856 41.4956 35.2266 41.8039 35.6156 42.1916C37.5313 44.1065 37.5313 47.2104 35.6156 49.1282C33.6992 51.0439 30.594 51.0439 28.6804 49.1282C26.7647 47.2104 26.7647 44.1065 28.6804 42.1916C29.1537 41.7189 29.7014 41.3615 30.2857 41.1213V23.5494C29.7014 23.3106 29.1544 22.9553 28.6804 22.4792C27.2289 21.0298 26.8799 18.8999 27.6235 17.1177L20.3681 9.8608L1.20766 29.0198C-0.402554 30.6307 -0.402554 33.2409 1.20766 34.8504L29.1516 62.7929C30.7604 64.4024 33.3699 64.4024 34.9808 62.7929L62.7941 34.9803C64.4036 33.3701 64.4036 30.7585 62.7941 29.149Z" fill="#7B4AE2" fill-opacity="0.5"/>
</svg>
