<svg width="64" height="64" viewBox="0 0 64 64" fill="none" xmlns="http://www.w3.org/2000/svg">
<g clip-path="url(#clip0_0_558)">
<path fill-rule="evenodd" clip-rule="evenodd" d="M59 6.10352e-05H5C2.23858 6.10352e-05 0 2.23864 0 5.00006V59.0001C0 61.7615 2.23858 64.0001 5 64.0001H59C61.7614 64.0001 64 61.7615 64 59.0001V5.00006C64 2.23864 61.7614 6.10352e-05 59 6.10352e-05ZM37.6295 57.0238V50.1188C38.882 51.1691 40.2425 51.9566 41.7113 52.4816C43.1797 53.0068 44.6625 53.2693 46.1598 53.2693C47.038 53.2693 47.8048 53.1901 48.4598 53.0318C49.1147 52.8736 49.662 52.6543 50.101 52.3738C50.54 52.0933 50.8677 51.7623 51.0835 51.3813C51.2995 51.0001 51.4075 50.5863 51.4075 50.1406C51.4075 49.5363 51.2348 48.9968 50.8893 48.5221C50.5438 48.0473 50.0723 47.6086 49.4748 47.2058C48.8773 46.8031 48.1683 46.4148 47.3475 46.0408C46.527 45.6666 45.6415 45.2856 44.6912 44.8971C42.2725 43.8901 40.4695 42.6601 39.2817 41.2073C38.0938 39.7543 37.5 37.9993 37.5 35.9423C37.5 34.3311 37.824 32.9466 38.4717 31.7886C39.1197 30.6306 40.0015 29.6776 41.1172 28.9293C42.233 28.1813 43.5253 27.6311 44.9938 27.2788C46.4622 26.9263 48.017 26.7501 49.6582 26.7501C51.2707 26.7501 52.6997 26.8471 53.945 27.0413C55.1903 27.2356 56.3385 27.5341 57.3895 27.9368V34.3886C56.8713 34.0291 56.306 33.7126 55.6942 33.4393C55.0822 33.1658 54.4525 32.9393 53.8047 32.7596C53.1567 32.5796 52.5125 32.4466 51.8717 32.3603C51.2313 32.2741 50.623 32.2308 50.047 32.2308C49.2552 32.2308 48.5353 32.3063 47.8875 32.4573C47.2395 32.6086 46.6925 32.8206 46.2463 33.0941C45.8 33.3673 45.4543 33.6946 45.2095 34.0758C44.9647 34.4571 44.8425 34.8848 44.8425 35.3596C44.8425 35.8776 44.9793 36.3413 45.2528 36.7513C45.5262 37.1613 45.915 37.5498 46.419 37.9166C46.9227 38.2836 47.5348 38.6431 48.2545 38.9956C48.9745 39.3481 49.7878 39.7111 50.6948 40.0853C51.933 40.6031 53.0452 41.1533 54.0315 41.7358C55.0175 42.3186 55.8635 42.9766 56.5687 43.7103C57.2743 44.4438 57.8143 45.2818 58.1885 46.2241C58.5627 47.1663 58.75 48.2633 58.75 49.5148C58.75 51.2411 58.4225 52.6903 57.7675 53.8626C57.1123 55.0351 56.2233 55.9846 55.1003 56.7111C53.9775 57.4373 52.6708 57.9588 51.1808 58.2753C49.6908 58.5918 48.1177 58.7501 46.4622 58.7501C44.7632 58.7501 43.1472 58.6063 41.614 58.3186C40.0807 58.0308 38.7525 57.5993 37.6295 57.0238ZM35 32.9356H26.1205V58.2501H19.0862V32.9356H10.25V27.2501H35V32.9356Z" fill="#7B4AE2" fill-opacity="0.5"/>
</g>
<defs>
<clipPath id="clip0_0_558">
<rect width="64" height="64" fill="white"/>
</clipPath>
</defs>
</svg>
