<svg width="64" height="64" viewBox="0 0 64 64" fill="none" xmlns="http://www.w3.org/2000/svg">
<g clip-path="url(#clip0_0_560)">
<path fill-rule="evenodd" clip-rule="evenodd" d="M21.4167 6.10352e-05C15.5287 6.10352e-05 10.75 4.77873 10.75 10.6667C10.75 16.5547 15.5287 21.3334 21.4167 21.3334C15.5287 21.3334 10.75 26.1121 10.75 32.0001C10.75 37.8881 15.5287 42.6667 21.4167 42.6667C15.5287 42.6667 10.75 47.4454 10.75 53.3334C10.75 59.2214 15.5287 64.0001 21.4167 64.0001C27.3047 64.0001 32.0833 59.2214 32.0833 53.3334L32.0833 32.0001C32.0833 37.8881 36.862 42.6667 42.75 42.6667C48.638 42.6667 53.4167 37.8881 53.4167 32.0001C53.4167 26.1121 48.638 21.3334 42.75 21.3334C48.638 21.3334 53.4167 16.5547 53.4167 10.6667C53.4167 4.77873 48.638 6.10352e-05 42.75 6.10352e-05H21.4167ZM42.75 21.3334H32.0833L32.0833 32.0001C32.0833 26.1121 36.862 21.3334 42.75 21.3334Z" fill="#7B4AE2" fill-opacity="0.5"/>
</g>
<defs>
<clipPath id="clip0_0_560">
<rect width="64" height="64" fill="white"/>
</clipPath>
</defs>
</svg>
