<svg width="57" height="64" viewBox="0 0 57 64" fill="none" xmlns="http://www.w3.org/2000/svg">
<path fill-rule="evenodd" clip-rule="evenodd" d="M0 6.10352e-05L5.1358 57.6021L28.183 64.0001L51.293 57.5927L56.4343 6.10352e-05H0ZM46.9154 53.9686L28.2645 59.0995L28.2645 51.7679L28.2084 51.7812L13.7123 47.7674L12.7225 36.6823H19.8148L20.3296 42.3091L28.2099 44.4254L28.2645 44.4172V33.0141L12.3745 33.0141L11.7558 25.9598V25.9598L28.2645 18.8941L28.2646 18.4061H11.1276L10.5016 11.3518H28.1929H28.2646L28.2645 4.79712H51.2852L46.9154 53.9686Z" fill="#7B4AE2" fill-opacity="0.5"/>
<path fill-rule="evenodd" clip-rule="evenodd" d="M29.4033 18.4061L28.2645 18.8941V25.9598H28.2645V33.0141H36.8922L36.1081 42.237L28.2645 44.4232V51.7734L42.7126 47.7596L44.6151 25.9598H28.2646L45.2565 18.4061L45.8633 11.3518H28.2645V18.3176V18.4061H29.4033Z" fill="#7B4AE2" fill-opacity="0.5"/>
</svg>
