<svg width="64" height="64" viewBox="0 0 64 64" fill="none" xmlns="http://www.w3.org/2000/svg">
<g clip-path="url(#clip0_0_559)">
<path fill-rule="evenodd" clip-rule="evenodd" d="M0.75 8.75006C0.75 4.33178 4.33172 0.750061 8.75 0.750061H55.25C59.6683 0.750061 63.25 4.33178 63.25 8.75006V55.2501C63.25 59.6683 59.6683 63.2501 55.25 63.2501H8.75C4.33172 63.2501 0.75 59.6683 0.75 55.2501V8.75006ZM17.1835 52.9795C17.1835 52.9796 17.1836 52.9796 17.1836 52.9796L17.1836 52.9796C18.5681 55.916 21.2955 58.3492 25.9937 58.3492C31.1962 58.3492 34.7621 55.5802 34.7621 49.4969V32.3803C34.7621 30.7584 33.4473 29.4436 31.8254 29.4436C30.2035 29.4436 28.8887 30.7584 28.8887 32.3803V49.4138C28.8887 52.3504 27.6719 53.1053 25.742 53.1053C22.9352 53.1053 19.9798 51.2874 17.5785 52.7406L17.1836 52.9796L17.1836 52.9795C17.1836 52.9795 17.1835 52.9795 17.1835 52.9795ZM44.5055 51.7442C43.3176 50.7311 41.6567 50.2055 40.3056 50.9878C38.9851 51.7524 38.4617 53.4525 39.471 54.5969C41.4409 56.8303 44.4821 58.3497 48.6505 58.3497C54.2303 58.3497 58.3836 55.4551 58.3836 50.1686C58.3836 45.2602 55.5726 43.0788 50.5801 40.939L49.1118 40.3098C46.5948 39.2189 45.504 38.5055 45.504 36.7434C45.504 35.3172 46.5948 34.2264 48.315 34.2264C49.0314 34.2264 49.6407 34.3564 50.1822 34.6458C51.5566 35.3802 53.1984 36.0319 54.5097 35.1899C55.7177 34.4142 56.1479 32.7846 55.1649 31.7383C53.4061 29.8663 51.1663 29.1078 48.3149 29.1078C43.0704 29.1078 39.7142 32.4642 39.7142 36.8694C39.7142 41.6522 42.5252 43.9177 46.7628 45.7214L48.2308 46.3512C50.9159 47.5255 52.51 48.2388 52.51 50.2525C52.51 51.9307 50.9581 53.1475 48.5245 53.1475C46.8005 53.1475 45.5229 52.6118 44.5055 51.7442Z" fill="#7B4AE2" fill-opacity="0.5"/>
</g>
<defs>
<clipPath id="clip0_0_559">
<rect y="6.10352e-05" width="64" height="64" rx="8" fill="white"/>
</clipPath>
</defs>
</svg>
