<svg width="32" height="32" viewBox="0 0 32 32" fill="none" xmlns="http://www.w3.org/2000/svg">
<g clip-path="url(#clip0_0_814)">
<path d="M15.9999 0C24.837 0 32 7.164 32 16.0001C32 24.8361 24.837 32 15.9999 32C7.1629 32 0 24.836 0 16.0001C0 7.16411 7.16301 0 15.9999 0Z" fill="white" fill-opacity="0.5"/>
<path d="M9.01598 21.984H12.012V11.9979H9.01598V21.984ZM20.688 11.652C19.234 11.652 17.933 12.183 17.0101 13.3551V11.9651H14.0031V21.9841H17.0101V16.5661C17.0101 15.421 18.0591 14.304 19.3731 14.304C20.687 14.304 21.0111 15.421 21.0111 16.538V21.9831H24.0071V16.3151C24.007 12.378 22.143 11.652 20.688 11.652ZM10.5 11C11.328 11 12 10.3279 12 9.49994C12 8.67192 11.328 8 10.5 8C9.67197 8 8.99994 8.67203 8.99994 9.50005C8.99994 10.3281 9.67197 11 10.5 11Z" fill="#090E16"/>
</g>
<defs>
<clipPath id="clip0_0_814">
<rect width="32" height="32" fill="white"/>
</clipPath>
</defs>
</svg>
